<?xml version="1.0" standalone="no"?>
<!DOCTYPE svg PUBLIC "-//W3C//DTD SVG 20010904//EN"
 "http://www.w3.org/TR/2001/REC-SVG-20010904/DTD/svg10.dtd">
<svg version="1.0" xmlns="http://www.w3.org/2000/svg"
 width="1024.000000pt" height="1024.000000pt" viewBox="0 0 1024.000000 1024.000000"
 preserveAspectRatio="xMidYMid meet">

<g transform="translate(0.000000,1024.000000) scale(0.100000,-0.100000)"
fill="#000000" stroke="none">
<path d="M0 5120 l0 -5120 5120 0 5120 0 -1 4653 c-1 2558 -4 4642 -6 4630 -2
-13 -8 -23 -12 -23 -12 0 -5 51 8 59 10 6 8 10 -4 15 -13 5 -15 9 -6 19 11 14
4 17 -34 17 -38 0 -45 -3 -34 -16 5 -7 6 -15 1 -18 -14 -8 -52 5 -52 18 0 7
-7 13 -15 13 -12 0 -12 -3 -2 -16 7 -9 8 -12 1 -8 -16 10 -35 -15 -24 -32 7
-12 11 -11 25 2 16 17 35 23 35 11 0 -3 -7 -13 -16 -22 -13 -13 -14 -17 -3
-21 7 -2 15 1 17 7 3 9 9 9 23 2 10 -6 19 -7 20 -3 0 4 5 -3 10 -16 10 -26 -3
-52 -15 -32 -4 6 -1 11 6 11 8 1 6 6 -6 15 -27 20 -42 19 -25 -2 8 -9 9 -14 3
-10 -37 22 -81 31 -76 15 1 -5 -2 -7 -7 -4 -5 3 -11 -4 -15 -17 -5 -17 -8 -19
-15 -8 -5 8 -7 20 -4 28 5 14 0 15 -60 16 -32 0 -36 2 -25 16 10 13 10 14 -2
4 -8 -7 -22 -13 -32 -13 -16 0 -17 2 -6 14 7 8 17 12 22 9 4 -3 5 5 1 17 -6
19 -4 22 9 17 23 -9 20 -2 -7 15 -21 15 -22 14 -22 -15 0 -17 -5 -32 -12 -34
-7 -3 -9 4 -6 18 4 14 2 20 -5 16 -5 -4 -12 -1 -15 5 -3 10 -7 10 -18 2 -10
-8 -20 -7 -37 1 -13 7 -23 15 -23 19 2 19 0 23 -15 23 -14 0 -14 -2 2 -14 10
-7 12 -13 6 -13 -7 0 -12 -3 -11 -7 3 -18 -14 -53 -25 -53 -6 0 -4 -5 4 -10
11 -7 12 -12 3 -21 -21 -21 -36 0 -18 27 14 21 14 24 0 24 -8 0 -23 -8 -33
-17 -26 -26 -62 -25 -63 1 -1 19 -2 18 -8 -3 -7 -27 -51 -41 -51 -16 0 17 12
19 26 5 7 -7 11 -6 11 4 0 8 -4 13 -9 10 -4 -3 -8 1 -8 10 0 19 20 26 42 14
14 -7 16 -5 11 9 -4 10 -11 21 -17 25 -12 8 -48 -10 -41 -21 2 -5 -7 -16 -20
-25 -24 -16 -25 -18 -9 -34 16 -16 16 -17 1 -20 -9 -2 -17 -10 -17 -18 0 -8
-5 -12 -11 -9 -7 5 -5 13 6 25 13 14 13 19 2 28 -9 7 -17 8 -23 2 -6 -6 -10 0
-12 17 -2 26 -2 26 20 7 19 -17 21 -17 15 -2 -3 10 -3 17 1 17 22 -4 32 2 25
14 -4 6 -8 18 -8 26 0 8 -7 16 -15 18 -9 3 -11 1 -5 -4 6 -4 11 -16 11 -25 1
-12 -6 -16 -27 -16 -20 1 -29 7 -34 25 -3 14 -10 21 -16 17 -8 -4 -7 -9 2 -15
9 -5 6 -11 -14 -20 -14 -6 -24 -16 -20 -22 3 -5 9 -3 14 4 7 12 11 11 25 -3
17 -17 11 -43 -8 -32 -6 4 -5 10 3 16 10 7 8 9 -7 5 -12 -2 -28 0 -37 5 -13 7
-18 3 -23 -17 -3 -14 -10 -25 -15 -25 -5 0 -9 -5 -9 -11 0 -6 8 -9 18 -7 10 3
19 0 19 -6 0 -19 -43 -13 -44 6 -1 10 3 20 8 23 5 4 7 11 3 16 -3 5 0 17 8 26
7 10 8 14 1 10 -6 -4 -13 -4 -16 0 -2 5 -3 3 -1 -3 1 -6 -1 -17 -6 -24 -6 -10
-11 -8 -19 8 -8 15 -8 23 0 27 14 9 -20 47 -36 41 -7 -2 -18 0 -26 5 -11 7
-10 9 4 9 10 0 15 5 12 10 -10 16 -35 -8 -28 -26 3 -8 -5 -17 -21 -24 -27 -10
-33 -24 -16 -35 6 -3 10 2 11 12 0 16 1 16 9 -2 5 -11 9 -14 9 -7 1 7 5 11 10
7 5 -3 12 -1 16 5 3 5 -1 10 -11 10 -13 0 -14 3 -5 14 12 14 48 14 62 -1 4 -5
1 -14 -7 -21 -8 -7 -14 -10 -14 -7 0 3 -13 -1 -29 -9 -16 -9 -31 -12 -35 -9
-3 4 -6 1 -6 -5 0 -15 36 -16 45 -2 4 6 11 7 17 4 7 -5 8 -2 3 6 -5 9 -4 11 3
6 17 -10 15 -29 -3 -23 -8 4 -17 2 -20 -3 -8 -13 -72 -13 -79 -1 -3 5 -16 7
-29 5 -19 -4 -19 -3 -3 4 18 8 18 9 0 27 -13 13 -15 20 -6 23 6 2 12 8 12 14
0 5 -10 6 -22 2 -21 -6 -21 -5 -9 10 8 9 20 15 27 12 7 -3 16 -1 19 3 11 19
-28 21 -42 2 -8 -12 -20 -18 -31 -15 -13 5 -14 4 -3 -4 11 -8 11 -10 0 -15 -9
-3 -5 -6 7 -6 25 -1 40 -29 24 -45 -8 -8 -11 -7 -8 3 2 8 -8 20 -22 28 -15 7
-24 20 -22 29 3 16 2 16 -13 0 -9 -9 -21 -13 -27 -10 -6 4 -5 10 3 15 13 8 5
13 -14 10 -5 -1 -6 3 -3 8 3 5 -2 15 -11 22 -15 12 -16 12 -10 -3 3 -10 2 -18
-3 -18 -6 0 -10 14 -10 31 0 24 -3 29 -17 25 -10 -3 -24 -2 -32 3 -10 6 -20 3
-31 -12 -17 -21 -18 -21 -25 11 -4 21 -12 32 -23 31 -11 0 -12 -2 -4 -6 20 -8
14 -22 -8 -16 -11 3 -17 10 -14 17 3 6 0 4 -8 -5 -14 -17 -41 -12 -46 9 -1 7
9 13 23 13 14 1 30 3 35 4 6 1 16 3 23 4 9 1 8 4 -2 10 -9 6 -24 6 -38 0 -29
-11 -42 -11 -28 -1 6 4 17 16 25 27 9 13 10 16 1 8 -7 -6 -21 -9 -30 -6 -14 4
-14 3 -1 -6 10 -7 11 -11 3 -11 -7 0 -13 -7 -13 -16 0 -9 -5 -12 -12 -8 -10 6
-10 4 0 -8 9 -12 10 -18 2 -23 -8 -5 -7 -12 2 -23 12 -15 11 -16 -4 -3 -10 7
-15 17 -12 22 3 5 -7 14 -21 21 -20 9 -28 9 -34 0 -4 -6 -17 -9 -29 -5 -30 8
-28 21 4 17 19 -2 24 1 20 13 -3 8 -6 17 -6 19 0 2 -7 4 -16 4 -12 0 -15 6
-11 21 5 19 4 20 -12 5 -9 -9 -33 -18 -52 -21 -25 -3 -27 -3 -10 3 13 4 25 15
27 25 3 21 -3 22 -22 2 -8 -8 -21 -12 -29 -9 -9 4 -15 0 -15 -10 0 -18 -25
-22 -35 -6 -3 5 0 7 9 4 9 -3 17 3 21 16 5 15 10 18 19 11 15 -13 26 -4 26 20
0 12 6 16 20 12 11 -3 20 -10 20 -15 0 -5 6 -6 13 -1 6 4 17 8 24 9 6 1 19 7
30 13 15 8 12 10 -14 6 -18 -2 -37 -6 -43 -10 -5 -3 -10 -1 -10 5 0 6 -6 10
-14 8 -8 -2 -22 6 -31 17 -15 19 -15 18 -11 -20 3 -22 2 -34 0 -27 -3 6 -9 10
-14 7 -4 -3 -10 2 -14 10 -3 8 -1 15 4 15 6 0 10 7 10 15 0 8 -5 15 -11 15 -5
0 -7 -6 -3 -12 4 -7 4 -10 -1 -6 -4 4 -15 2 -24 -5 -14 -11 -14 -10 -2 6 12
15 11 17 -2 17 -9 0 -23 -7 -32 -16 -14 -15 -14 -17 2 -30 10 -7 15 -14 11
-14 -4 0 -19 11 -34 25 -14 13 -31 22 -36 19 -5 -3 -4 5 4 17 7 13 19 28 25
32 18 11 16 24 -2 24 -8 0 -15 -4 -15 -9 0 -5 -4 -6 -10 -3 -5 3 2 18 18 32
24 23 25 25 5 19 -14 -4 -23 -2 -26 6 -2 7 -3 4 -1 -8 3 -17 -2 -21 -26 -22
-17 0 -30 4 -30 9 0 13 -27 11 -36 -3 -5 -7 -2 -9 9 -5 8 3 21 -1 28 -9 7 -8
18 -13 25 -10 8 3 13 2 13 -2 -3 -20 2 -33 11 -27 6 3 7 -1 4 -9 -3 -9 -10
-16 -16 -16 -5 0 -6 5 -3 10 3 6 1 10 -5 10 -6 0 -8 5 -4 12 4 6 3 8 -3 5 -6
-4 -16 0 -23 8 -7 8 -17 15 -23 15 -7 0 -7 -4 1 -12 7 -7 12 -17 12 -23 0 -5
-8 3 -19 18 -15 24 -19 26 -25 12 -8 -22 -8 -27 2 -21 5 3 9 -2 9 -10 0 -13
-2 -13 -15 -1 -10 11 -11 20 -4 34 7 12 7 25 1 34 -7 11 -9 9 -9 -9 0 -13 -4
-21 -10 -17 -5 3 -6 13 -3 23 6 14 4 15 -9 4 -13 -10 -19 -10 -31 2 -11 11
-17 12 -28 3 -11 -10 -11 -9 -2 3 7 9 8 21 3 29 -4 8 -6 21 -2 29 4 12 -1 14
-21 10 -31 -6 -37 7 -8 15 24 6 54 -24 45 -46 -4 -12 -1 -14 16 -10 15 4 18 8
9 13 -6 5 -10 19 -7 34 3 17 -1 31 -13 42 -21 19 -26 6 -6 -15 10 -10 8 -12
-8 -9 -19 3 -20 11 -20 191 l0 187 -4117 0 -4118 0 0 -5120z m8197 5088 c-3
-8 -6 -5 -6 6 -1 11 2 17 5 13 3 -3 4 -12 1 -19z m-6147 -2 c0 -2 3 -11 6 -20
5 -12 0 -16 -20 -16 l-26 0 0 -134 c0 -74 -4 -137 -8 -140 -4 -2 -14 -1 -22 4
-12 7 -14 32 -12 120 3 116 -3 140 -38 140 -15 0 -18 -16 -23 -131 -3 -72 -8
-133 -11 -136 -3 -3 -17 -3 -31 1 -20 5 -25 13 -26 39 0 17 -7 50 -14 72 -14
40 -14 40 -12 -40 2 -79 1 -80 -23 -80 l-25 0 -3 143 c-2 122 0 143 13 148 21
9 49 -22 65 -72 22 -69 32 -64 28 14 -4 73 -4 73 22 71 14 -1 32 1 40 4 13 6
43 10 103 15 9 1 17 0 17 -2z m-332 -176 c39 -158 39 -164 10 -156 -13 3 -26
6 -30 6 -5 0 -8 9 -8 19 0 31 -41 22 -52 -10 -8 -22 -17 -28 -54 -34 -24 -3
-48 -4 -53 0 -6 3 -13 25 -16 49 -14 90 -50 87 -44 -3 4 -50 3 -52 -21 -49
l-25 3 0 140 0 140 44 3 c71 5 89 -3 101 -47 11 -40 6 -65 -16 -92 -11 -13
-12 -25 -2 -67 7 -29 17 -51 23 -49 5 2 22 65 39 140 26 126 31 137 51 137 20
0 25 -12 53 -130z m-336 73 c25 -30 29 -53 22 -141 -5 -66 -12 -90 -29 -110
-21 -25 -24 -25 -64 -14 -50 16 -55 30 -49 152 3 68 8 94 23 110 23 25 76 27
97 3z m-182 -128 c3 -66 8 -119 13 -117 4 1 15 -2 25 -7 27 -15 1 -33 -44 -29
l-39 3 -3 138 -3 138 23 -3 c22 -3 23 -7 28 -123z m-133 103 c12 -16 18 -36
43 -157 24 -111 23 -101 5 -101 -8 0 -15 9 -15 20 0 16 -7 20 -34 20 -29 0
-36 -5 -44 -29 -8 -22 -15 -28 -30 -24 -18 4 -19 8 -6 51 7 26 20 83 29 127
21 100 22 105 33 105 5 0 14 -6 19 -12z m-117 -12 c0 -3 -4 -8 -10 -11 -5 -3
-10 -1 -10 4 0 6 5 11 10 11 6 0 10 -2 10 -4z m20 -67 c-17 -91 -32 -110 -27
-33 5 57 22 112 33 101 3 -3 0 -34 -6 -68z m-90 41 c11 -21 4 -106 -10 -115
-7 -4 -30 90 -30 122 0 20 28 15 40 -7z m-87 -42 c43 -150 49 -179 42 -195 -7
-15 -9 -13 -16 12 -4 17 -19 70 -33 120 -28 98 -31 115 -17 115 5 0 16 -24 24
-52z m140 -154 c-4 -21 -15 -40 -22 -42 -11 -4 -13 4 -7 38 8 53 15 65 28 52
7 -7 7 -24 1 -48z m7297 -134 c0 -10 -27 -7 -37 5 -5 4 -2 5 6 0 11 -6 13 -4
7 10 -5 15 -4 16 9 5 8 -7 15 -16 15 -20z m56 15 c-8 -8 -17 -15 -20 -15 -3 0
-3 7 0 15 4 8 13 15 21 15 12 0 12 -2 -1 -15z m129 -46 c-4 -5 -13 -9 -21 -9
-12 0 -12 2 -2 14 14 15 32 11 23 -5z m-145 -9 c0 -5 -2 -10 -4 -10 -3 0 -8 5
-11 10 -3 6 -1 10 4 10 6 0 11 -4 11 -10z m68 -15 c-3 -3 -9 2 -12 12 -6 14
-5 15 5 6 7 -7 10 -15 7 -18z m-148 -9 c0 -2 -7 -7 -16 -10 -8 -3 -12 -2 -9 4
6 10 25 14 25 6z m293 -24 c15 -16 15 -18 -1 -18 -10 0 -18 8 -18 18 0 10 1
18 2 18 0 0 8 -8 17 -18z m-162 -25 c-10 -9 -11 -8 -5 6 3 10 9 15 12 12 3 -3
0 -11 -7 -18z m39 -17 c8 -5 11 -10 5 -10 -5 0 -17 5 -25 10 -8 5 -10 10 -5
10 6 0 17 -5 25 -10z m97 -16 c-3 -3 -12 -4 -19 -1 -8 3 -5 6 6 6 11 1 17 -2
13 -5z m233 -24 c13 -8 13 -10 -2 -10 -9 0 -20 5 -23 10 -8 13 5 13 25 0z
m-206 -38 c3 -5 -1 -9 -9 -9 -8 0 -12 4 -9 9 3 4 7 8 9 8 2 0 6 -4 9 -8z m273
-19 c-4 -3 1 -12 11 -20 15 -13 15 -13 -6 -3 -19 9 -23 30 -5 30 4 0 3 -3 0
-7z m-18 -50 c1 -7 -2 -13 -6 -13 -5 0 -9 15 -10 33 -1 26 0 28 7 12 5 -11 9
-26 9 -32z m-34 27 c-3 -5 -11 -10 -16 -10 -6 0 -7 5 -4 10 3 6 11 10 16 10 6
0 7 -4 4 -10z m172 4 c-3 -4 -2 -15 3 -25 12 -22 -6 -37 -23 -20 -9 9 -7 11 8
6 18 -6 17 -5 -3 12 -23 19 -21 33 6 33 9 0 12 -3 9 -6z m129 -33 c0 -15 -3
-17 -18 -8 -9 6 -21 8 -25 4 -4 -5 -1 -12 7 -17 12 -7 10 -9 -6 -8 -11 1 -26
8 -33 16 -11 11 -10 13 5 10 11 -2 18 2 17 10 -2 7 8 12 25 12 20 0 28 -5 28
-19z m24 -41 c11 -8 9 -9 -12 -8 -16 1 -28 6 -28 10 0 11 22 10 40 -2z m-65
-12 c5 4 5 2 2 -4 -4 -6 -18 -9 -32 -7 -13 3 -22 9 -19 14 3 5 13 5 23 -1 10
-5 22 -6 26 -2z m175 -45 c0 -8 -35 2 -42 12 -15 21 -7 25 17 9 14 -9 25 -18
25 -21z m475 27 c-3 -5 -12 -10 -18 -10 -7 0 -6 4 3 10 19 12 23 12 15 0z
m569 -2 c-5 -7 -2 -9 7 -6 10 4 15 -1 16 -13 1 -11 -2 -17 -8 -14 -5 4 -9 0
-9 -7 0 -10 -2 -10 -9 1 -7 11 -10 11 -17 -2 -7 -11 -14 -13 -24 -7 -13 8 -12
10 3 10 10 0 22 11 27 25 5 14 12 25 15 25 4 0 3 -5 -1 -12z m-1199 -8 c-3 -5
-12 -10 -18 -10 -7 0 -6 4 3 10 19 12 23 12 15 0z m92 4 c-3 -3 -12 -4 -19 -1
-8 3 -5 6 6 6 11 1 17 -2 13 -5z m738 -14 c5 -8 11 -8 20 0 21 17 40 -14 20
-33 -13 -14 -9 -17 40 -27 63 -13 74 -23 15 -14 -35 6 -40 4 -40 -12 0 -16 -3
-14 -18 8 -13 20 -22 24 -32 18 -21 -14 -36 -12 -54 5 -19 20 -10 46 12 37 15
-5 15 -4 3 11 -12 15 -11 17 7 17 12 0 24 -5 27 -10z m-695 -24 c0 -2 -7 -7
-16 -10 -8 -3 -12 -2 -9 4 6 10 25 14 25 6z m310 0 c0 -3 -4 -8 -10 -11 -5 -3
-10 -1 -10 4 0 6 5 11 10 11 6 0 10 -2 10 -4z m-350 -16 c0 -5 -2 -10 -4 -10
-3 0 -8 5 -11 10 -3 6 -1 10 4 10 6 0 11 -4 11 -10z m278 -15 c-3 -3 -9 2 -12
12 -6 14 -5 15 5 6 7 -7 10 -15 7 -18z m89 10 c0 -8 -4 -15 -9 -15 -10 0 -11
14 -1 23 9 10 10 9 10 -8z m-220 -21 c0 -7 -8 -12 -18 -11 -10 1 -15 5 -12 10
3 5 -5 6 -18 2 -17 -4 -20 -3 -10 3 19 14 58 12 58 -4z m454 -1 c8 2 11 2 6 0
-4 -3 -4 -10 -1 -15 5 -7 2 -8 -6 -3 -7 4 -16 2 -21 -6 -7 -12 -10 -12 -21 0
-8 9 -9 11 -1 7 6 -3 14 -2 18 4 3 5 1 10 -5 10 -6 0 -8 5 -4 11 5 8 8 8 14 0
3 -7 13 -10 21 -8z m529 13 c0 -3 -4 -8 -10 -11 -5 -3 -10 -1 -10 4 0 6 5 11
10 11 6 0 10 -2 10 -4z m-708 -28 c-7 -7 -12 -8 -12 -2 0 14 12 26 19 19 2 -3
-1 -11 -7 -17z m-219 5 c-7 -2 -19 -2 -25 0 -7 3 -2 5 12 5 14 0 19 -2 13 -5z
m319 -2 c8 11 9 11 6 1 -2 -8 -7 -13 -11 -13 -4 1 -17 1 -29 2 -22 0 -22 1 -3
8 12 5 22 4 24 -1 2 -6 8 -4 13 3z m163 -20 c-3 -12 -10 -21 -15 -21 -4 0 -3
11 3 24 14 29 22 27 12 -3z m39 7 c-3 -4 -9 -8 -15 -8 -5 0 -9 4 -9 8 0 5 7 9
15 9 8 0 12 -4 9 -9z m276 -13 c-7 -9 -15 -13 -18 -10 -3 3 -12 -1 -20 -8 -13
-10 -14 -9 -8 1 4 7 18 17 30 22 29 12 30 12 16 -5z m-636 -11 c5 -14 4 -15
-9 -4 -17 14 -19 20 -6 20 5 0 12 -7 15 -16z m490 4 c-3 -4 -12 -8 -20 -8 -8
0 -14 4 -14 8 0 4 9 8 19 8 11 0 17 -4 15 -8z m261 -8 c-3 -5 -11 -10 -16 -10
-6 0 -7 5 -4 10 3 6 11 10 16 10 6 0 7 -4 4 -10z m-2002 -17 c-7 -2 -21 -2
-30 0 -10 3 -4 5 12 5 17 0 24 -2 18 -5z m-266 -9 c-3 -3 -12 -4 -19 -1 -8 3
-5 6 6 6 11 1 17 -2 13 -5z m380 0 c-3 -3 -12 -4 -19 -1 -8 3 -5 6 6 6 11 1
17 -2 13 -5z m1290 -10 c-3 -3 -12 -4 -19 -1 -8 3 -5 6 6 6 11 1 17 -2 13 -5z
m-30 -30 c-3 -3 -12 -4 -19 -1 -8 3 -5 6 6 6 11 1 17 -2 13 -5z m-1152 -24
c10 -11 16 -20 13 -20 -3 0 -13 9 -23 20 -10 11 -16 20 -13 20 3 0 13 -9 23
-20z m636 -217 c13 -16 12 -17 -3 -4 -10 7 -18 15 -18 17 0 8 8 3 21 -13z
m-1603 -549 c36 -22 41 -28 32 -44 -11 -20 -32 -22 -60 -6 -12 7 -13 6 -3 -4
7 -8 18 -15 25 -16 7 -1 20 -3 28 -5 9 -3 16 5 18 19 2 12 8 22 13 22 14 0 11
-20 -10 -48 -46 -66 -83 -155 -78 -189 7 -38 0 -43 -13 -10 -6 15 -9 17 -9 6
-1 -9 6 -22 14 -29 8 -7 15 -9 15 -4 0 5 31 -23 70 -61 58 -58 67 -71 57 -84
-11 -14 -10 -14 6 -2 16 13 22 11 52 -19 37 -36 37 -36 56 -221 11 -107 10
-125 -11 -244 -25 -139 -25 -274 1 -407 10 -58 10 -73 -4 -110 -8 -24 -18 -68
-22 -98 -3 -30 -27 -121 -53 -203 l-47 -147 -80 -31 c-156 -60 -470 -135 -637
-153 l-58 -6 0 82 c0 82 0 82 -44 138 -45 56 -49 69 -47 128 1 39 20 42 106
12 70 -24 71 -24 55 -5 -16 20 -136 56 -163 50 -13 -3 -36 3 -56 15 -27 17
-32 25 -26 43 4 12 9 60 12 107 6 99 4 102 -90 141 -35 14 -74 41 -98 67 -35
38 -38 45 -28 65 7 12 31 39 55 60 23 20 77 89 119 152 43 63 81 112 85 110 4
-3 14 3 21 13 13 15 12 16 -3 3 -10 -7 -18 -10 -18 -7 0 13 32 56 39 52 7 -5
15 53 14 111 0 28 -12 62 -37 106 -20 36 -36 73 -36 83 0 9 20 74 44 143 24
70 47 158 51 196 9 80 41 140 83 156 15 6 66 28 113 50 88 40 130 47 183 28
25 -8 51 -5 141 19 122 32 127 32 223 -24z m-5952 -485 c4 -7 -2 -9 -17 -7
-34 4 -37 -27 -5 -48 45 -29 25 -94 -24 -79 -29 9 -25 27 5 19 41 -10 45 23 6
53 -17 13 -31 30 -31 37 0 29 51 49 66 25z m-569 -21 c-3 -8 -6 -5 -6 6 -1 11
2 17 5 13 3 -3 4 -12 1 -19z m73 15 c-8 -3 -22 -11 -30 -17 -13 -10 -13 -9 -1
7 7 9 21 17 30 16 13 0 14 -1 1 -6z m103 -95 c8 -5 6 -8 -5 -8 -15 0 -18 8
-16 53 l1 52 4 -45 c3 -24 10 -48 16 -52z m105 79 c14 -10 17 -97 2 -97 -5 0
-10 20 -10 44 0 72 -27 73 -32 2 -4 -58 -18 -53 -18 6 0 49 2 54 23 53 12 0
28 -4 35 -8z m-341 -34 c-3 -10 -5 -4 -5 12 0 17 2 24 5 18 2 -7 2 -21 0 -30z
m444 10 c-4 -16 -17 -32 -29 -38 -29 -13 -28 -25 2 -25 30 0 40 -13 31 -41 -5
-16 -14 -19 -38 -17 l-32 3 2 60 c1 33 2 66 2 73 1 7 15 12 35 12 32 0 34 -1
27 -27z m447 -4 c15 -1 15 -2 0 -6 -13 -3 -18 -14 -18 -38 0 -22 6 -38 18 -44
15 -9 15 -10 -5 -11 -21 0 -23 5 -23 45 0 29 -4 45 -12 46 -10 0 -10 2 0 6 6
2 13 12 13 21 1 15 2 15 6 0 2 -10 12 -19 21 -19z m-212 -24 c8 -45 20 -45 28
0 4 19 11 35 16 35 13 0 -30 -123 -48 -137 -9 -7 -18 -11 -21 -8 -2 3 4 11 14
19 19 13 19 16 2 68 -20 63 -21 71 -7 63 5 -3 12 -21 16 -40z m-527 -8 c-1
-20 -2 -20 -6 -2 -3 11 -13 25 -22 33 -14 11 -13 12 7 2 14 -7 22 -19 21 -33z
m661 32 c0 -6 -9 -8 -20 -4 -30 9 -25 -15 8 -41 25 -21 26 -24 11 -39 -11 -11
-24 -15 -38 -10 -29 9 -26 23 4 17 32 -6 32 7 -1 33 -17 14 -23 26 -19 38 8
18 55 24 55 6z m178 -11 c7 -7 12 -20 12 -30 0 -13 -8 -18 -31 -18 -35 0 -36
-23 -1 -28 26 -4 29 -22 4 -22 -27 0 -42 20 -42 55 0 31 15 55 35 55 6 0 16
-5 23 -12z m172 -14 c0 -8 -4 -14 -9 -14 -11 0 -22 26 -14 34 9 9 23 -3 23
-20z m-82 -36 l-2 -53 -3 48 c-3 39 -7 48 -21 45 -12 -2 -19 -17 -23 -48 l-6
-45 -1 53 c-2 52 -2 52 28 52 30 0 30 0 28 -52z m82 -43 c0 -17 -4 -23 -14
-19 -8 3 -12 13 -9 25 7 27 23 24 23 -6z m6515 -110 c114 -30 195 -100 249
-215 26 -55 31 -80 34 -161 6 -148 -32 -257 -127 -361 -153 -167 -407 -183
-555 -35 -52 53 -99 140 -115 215 -43 203 66 430 251 521 101 50 171 59 263
36z m-6735 -315 c0 -23 5 -30 19 -30 15 0 21 8 23 33 2 17 5 28 8 22 3 -5 3
-39 -1 -75 -3 -41 -6 -51 -7 -27 -2 30 -6 37 -22 37 -16 0 -20 -7 -20 -30 0
-16 -4 -30 -10 -30 -6 0 -10 28 -10 65 0 37 4 65 10 65 6 0 10 -13 10 -30z
m200 -34 c0 -42 4 -66 13 -70 6 -3 3 -5 -8 -3 -17 2 -20 11 -23 62 -2 33 -9
63 -15 67 -8 5 -4 8 11 8 21 0 22 -4 22 -64z m80 0 c0 -53 3 -65 18 -69 13 -4
11 -5 -5 -6 -22 -1 -23 3 -23 63 0 42 -4 66 -12 69 -8 3 -6 6 5 6 14 1 17 -8
17 -63z m-1162 -7 l-3 -44 -5 52 c-3 29 -1 48 3 44 5 -5 7 -28 5 -52z m90 0
l-3 -44 -5 52 c-3 29 -1 48 3 44 5 -5 7 -28 5 -52z m70 0 l-3 -44 -5 52 c-3
29 -1 48 3 44 5 -5 7 -28 5 -52z m37 40 c10 -30 2 -32 -12 -3 -6 13 -7 24 -3
24 5 0 12 -9 15 -21z m53 10 c-10 -5 -18 -17 -18 -26 0 -11 8 -14 30 -11 17 3
30 1 30 -4 0 -4 -16 -8 -35 -8 -27 0 -35 4 -35 18 0 20 18 42 35 42 5 0 2 -5
-7 -11z m1058 -12 c13 -103 14 -117 4 -117 -5 0 -10 15 -10 33 0 17 -3 50 -7
72 -3 22 -2 36 3 32 4 -4 9 -13 10 -20z m59 -63 c-6 -54 -25 -75 -25 -29 0 14
5 25 10 25 6 0 11 21 11 48 1 26 3 39 6 28 3 -10 2 -43 -2 -72z m215 22 c0
-42 4 -66 13 -69 7 -3 5 -6 -5 -6 -15 -1 -18 8 -18 59 0 33 -4 60 -10 60 -5 0
-10 5 -10 10 0 6 7 10 15 10 12 0 15 -14 15 -64z m110 -7 l0 -70 -27 3 c-24 2
-29 8 -31 36 -4 37 12 64 34 55 10 -4 14 2 14 21 0 14 2 26 5 26 3 0 5 -32 5
-71z m-1357 41 c-3 -12 -8 -19 -11 -16 -5 6 5 36 12 36 2 0 2 -9 -1 -20z m84
-87 c-2 -21 -4 -4 -4 37 0 41 2 58 4 38 2 -21 2 -55 0 -75z m48 96 c11 -16 1
-19 -13 -3 -7 8 -8 14 -3 14 5 0 13 -5 16 -11z m89 2 c4 -5 -3 -7 -14 -4 -23
6 -26 13 -6 13 8 0 17 -4 20 -9z m-437 -63 c-2 -13 -4 -3 -4 22 0 25 2 35 4
23 2 -13 2 -33 0 -45z m603 58 c0 -2 -7 -7 -16 -10 -8 -3 -12 -2 -9 4 6 10 25
14 25 6z m294 -18 c22 -32 20 -38 -14 -38 -16 0 -30 -4 -30 -8 0 -16 23 -30
39 -25 12 5 13 3 5 -7 -18 -18 -51 -3 -58 26 -7 26 15 74 34 74 5 0 16 -10 24
-22z m266 -43 c0 -43 -30 -64 -54 -39 -35 34 -5 105 35 84 13 -7 19 -21 19
-45z m-1226 31 c-10 -8 -21 -12 -24 -10 -5 6 21 24 34 24 6 0 1 -6 -10 -14z
m516 4 c0 -5 -5 -10 -11 -10 -5 0 -7 5 -4 10 3 6 8 10 11 10 2 0 4 -4 4 -10z
m177 -12 c-3 -8 -6 -5 -6 6 -1 11 2 17 5 13 3 -3 4 -12 1 -19z m589 -15 c-11
-11 -19 6 -11 24 8 17 8 17 12 0 3 -10 2 -21 -1 -24z m104 22 c14 -17 6 -50
-10 -40 -6 4 -18 4 -27 1 -12 -5 -13 -9 -3 -22 7 -8 19 -13 27 -10 7 3 13 1
13 -4 0 -14 -34 -12 -48 2 -7 7 -12 24 -12 38 0 44 35 65 60 35z m80 4 c0 -5
-7 -9 -15 -9 -11 0 -15 -11 -15 -40 0 -22 -4 -40 -10 -40 -5 0 -10 21 -10 48
0 43 2 47 25 48 14 1 25 -2 25 -7z m-985 -9 c-3 -5 -12 -10 -18 -10 -7 0 -6 4
3 10 19 12 23 12 15 0z m62 -12 c-3 -8 -6 -5 -6 6 -1 11 2 17 5 13 3 -3 4 -12
1 -19z m90 0 c-3 -8 -6 -5 -6 6 -1 11 2 17 5 13 3 -3 4 -12 1 -19z m-490 -20
c-3 -7 -5 -2 -5 12 0 14 2 19 5 13 2 -7 2 -19 0 -25z m530 26 c-3 -3 -12 -4
-19 -1 -8 3 -5 6 6 6 11 1 17 -2 13 -5z m-493 -20 c3 -8 2 -12 -4 -9 -6 3 -10
10 -10 16 0 14 7 11 14 -7z m333 -3 c0 -11 -5 -18 -9 -15 -4 3 -5 11 -1 19 7
21 12 19 10 -4z m-497 -7 c0 -2 -9 -4 -20 -4 -11 0 -20 4 -20 9 0 5 9 7 20 4
11 -3 20 -7 20 -9z m300 1 c-14 -17 -36 -20 -44 -6 -4 5 2 7 13 4 10 -3 22 0
25 6 4 6 10 11 13 11 3 0 0 -7 -7 -15z m95 -4 c-3 -6 -14 -10 -23 -10 -15 1
-15 2 1 6 9 2 17 9 17 15 0 6 3 9 6 5 3 -3 3 -10 -1 -16z m55 -6 c14 -19 14
-19 -2 -6 -10 7 -18 18 -18 24 0 6 1 8 3 6 1 -2 9 -13 17 -24z m101 -2 c13
-16 12 -17 -3 -4 -10 7 -18 15 -18 17 0 8 8 3 21 -13z m116 -9 c-3 -3 -12 -4
-19 -1 -8 3 -5 6 6 6 11 1 17 -2 13 -5z m-737 -68 c0 -14 -4 -28 -10 -31 -5
-3 -10 -15 -10 -26 0 -10 -5 -19 -11 -19 -7 0 -8 7 -4 18 5 9 9 28 11 42 1 14
3 28 3 33 2 19 21 4 21 -17z m-20 -108 c0 -18 -2 -20 -9 -8 -6 8 -7 18 -5 22
9 14 14 9 14 -14z m14 -69 c-5 -8 -10 -6 -16 5 -5 9 -6 21 -2 27 5 8 10 6 16
-5 5 -9 6 -21 2 -27z m-17 -71 c-3 -7 -5 -2 -5 12 0 14 2 19 5 13 2 -7 2 -19
0 -25z m0 -75 c-3 -10 -5 -4 -5 12 0 17 2 24 5 18 2 -7 2 -21 0 -30z m440 0
c-3 -10 -5 -4 -5 12 0 17 2 24 5 18 2 -7 2 -21 0 -30z m123 -27 c0 -42 4 -66
13 -69 7 -3 5 -6 -5 -6 -15 -1 -18 8 -18 63 0 42 -4 66 -12 69 -8 3 -6 6 5 6
14 1 17 -8 17 -63z m463 -68 c8 -5 6 -8 -5 -8 -16 0 -18 9 -16 68 l2 67 3 -60
c2 -33 10 -63 16 -67z m410 115 c-7 -2 -13 -18 -13 -34 0 -16 5 -29 13 -29 9
0 9 -2 1 -8 -7 -4 -14 -18 -17 -32 -2 -14 -5 2 -6 36 -1 61 3 75 23 73 6 0 5
-3 -1 -6z m37 -33 c0 -10 -3 -21 -7 -23 -5 -3 -8 8 -8 23 0 15 3 26 8 23 4 -2
7 -13 7 -23z m-1172 -2 c21 -21 12 -88 -11 -88 -7 0 -7 4 1 12 15 15 16 64 2
73 -6 4 -17 1 -25 -5 -9 -8 -15 -8 -15 -2 0 9 14 19 31 21 3 1 10 -4 17 -11z
m468 0 c4 -7 3 -8 -5 -4 -31 19 -55 -44 -28 -74 10 -12 9 -12 -5 -1 -22 17
-23 54 -2 75 18 19 30 20 40 4z m159 2 c-3 -5 -12 -10 -18 -10 -7 0 -6 4 3 10
19 12 23 12 15 0z m-573 -52 c2 -20 0 -34 -4 -32 -4 3 -8 24 -7 47 1 47 6 41
11 -15z m45 -15 c-2 -16 -4 -5 -4 22 0 28 2 40 4 28 2 -13 2 -35 0 -50z m796
26 c25 -21 16 -50 -15 -48 l-23 2 23 4 c27 5 29 24 2 41 -11 7 -20 20 -19 30
0 13 2 14 6 2 3 -8 15 -22 26 -31z m389 0 c-4 -36 -2 -40 14 -37 11 2 21 15
25 33 6 29 7 29 8 4 1 -30 -22 -54 -44 -45 -20 7 -20 86 -1 86 1 0 0 -18 -2
-41z m305 -26 c-2 -16 -4 -5 -4 22 0 28 2 40 4 28 2 -13 2 -35 0 -50z m61 36
c-3 -8 -7 -3 -11 10 -4 17 -3 21 5 13 5 -5 8 -16 6 -23z m-1511 -26 c-3 -10
-5 -2 -5 17 0 19 2 27 5 18 2 -10 2 -26 0 -35z m1480 -5 c-2 -13 -4 -5 -4 17
-1 22 1 32 4 23 2 -10 2 -28 0 -40z m-1420 10 c-3 -7 -5 -2 -5 12 0 14 2 19 5
13 2 -7 2 -19 0 -25z m166 -31 c8 -6 7 -7 -3 -4 -9 2 -16 17 -16 38 -2 31 -1
31 3 4 3 -16 10 -34 16 -38z m267 2 c21 -6 22 -7 5 -8 -28 -1 -45 18 -44 49 1
23 2 23 8 -5 4 -20 14 -31 31 -36z m364 24 c8 -19 2 -16 -25 13 -23 25 -23 26
-2 13 13 -7 25 -19 27 -26z m-164 7 c0 -11 -2 -20 -4 -20 -2 0 -6 9 -9 20 -3
11 -1 20 4 20 5 0 9 -9 9 -20z m561 -3 c-10 -9 -11 -8 -5 6 3 10 9 15 12 12 3
-3 0 -11 -7 -18z m-30 -10 c-10 -9 -11 -8 -5 6 3 10 9 15 12 12 3 -3 0 -11 -7
-18z m86 -9 c-3 -7 -5 -2 -5 12 0 14 2 19 5 13 2 -7 2 -19 0 -25z m200 0 c-3
-8 -6 -5 -6 6 -1 11 2 17 5 13 3 -3 4 -12 1 -19z m-87 2 c0 -5 -5 -10 -11 -10
-5 0 -7 5 -4 10 3 6 8 10 11 10 2 0 4 -4 4 -10z m-1375 -10 c-3 -5 -12 -10
-18 -10 -7 0 -6 4 3 10 19 12 23 12 15 0z m610 -8 c-3 -3 -11 0 -18 7 -9 10
-8 11 6 5 10 -3 15 -9 12 -12z m188 1 c-7 -2 -19 -2 -25 0 -7 3 -2 5 12 5 14
0 19 -2 13 -5z m424 1 c-3 -3 -12 -4 -19 -1 -8 3 -5 6 6 6 11 1 17 -2 13 -5z
m-17 -31 c16 4 20 3 13 -4 -15 -15 -45 -7 -50 11 -4 12 -3 13 5 1 6 -8 19 -12
32 -8z m-1393 -65 c-3 -13 -10 -41 -16 -62 -7 -30 -6 -48 5 -74 17 -42 17 -42
-1 -42 -10 0 -16 11 -17 35 -1 19 -2 43 -2 53 -1 9 -5 20 -11 24 -6 5 -5 8 3
8 6 0 12 11 12 24 0 32 10 56 22 56 6 0 8 -10 5 -22z m1847 -263 c-15 -37 -15
-72 1 -120 4 -14 2 -12 -9 5 -8 14 -15 40 -16 58 0 33 26 109 35 100 3 -3 -2
-22 -11 -43z m85 -45 c0 -19 -7 -51 -15 -70 l-14 -35 7 35 c10 46 10 99 0 130
l-8 25 15 -25 c9 -14 15 -41 15 -60z m-715 20 c-14 -41 -14 -58 2 -107 5 -17
4 -17 -10 1 -20 25 -20 76 -1 123 21 50 28 37 9 -17z m326 30 c0 -5 -4 -10
-10 -10 -5 0 -10 5 -10 10 0 6 5 10 10 10 6 0 10 -4 10 -10z m-500 -10 c0 -5
-2 -10 -4 -10 -3 0 -8 5 -11 10 -3 6 -1 10 4 10 6 0 11 -4 11 -10z m280 0 c0
-5 -6 -7 -14 -4 -28 11 -28 -18 0 -47 23 -24 26 -33 18 -47 -14 -22 -43 -28
-58 -12 -8 10 -6 11 12 7 33 -8 42 21 14 44 -21 17 -29 49 -15 62 10 11 43 8
43 -3z m68 -21 c15 -1 15 -2 1 -6 -21 -5 -23 -60 -2 -71 9 -5 11 -12 6 -15
-25 -15 -40 36 -33 108 2 17 3 17 7 3 2 -10 12 -19 21 -19z m-981 -16 c-3 -10
-5 -4 -5 12 0 17 2 24 5 18 2 -7 2 -21 0 -30z m113 -27 c0 -35 5 -67 10 -69 6
-3 5 -4 -2 -3 -14 3 -29 136 -15 136 4 0 7 -29 7 -64z m337 27 l10 -38 8 38
c12 60 25 43 23 -30 -1 -63 -1 -65 -7 -23 l-7 45 -8 -35 -9 -35 -11 35 -10 35
-7 -45 c-6 -42 -6 -40 -7 23 -2 74 11 88 25 30z m610 6 c-11 -7 -17 -22 -17
-44 0 -19 -5 -35 -10 -35 -6 0 -9 20 -8 45 1 36 5 45 22 47 28 5 35 -1 13 -13z
m73 -23 c0 -17 5 -37 12 -44 9 -9 8 -12 -5 -12 -13 0 -17 9 -17 40 0 22 -5 40
-11 40 -5 0 -7 5 -4 10 11 18 25 0 25 -34z m96 -12 c1 -45 1 -46 -3 -6 -5 54
-33 60 -33 7 0 -19 -3 -35 -7 -35 -15 0 -8 75 7 82 27 12 35 2 36 -48z m76 30
c-3 -15 -13 -29 -23 -31 -26 -7 -24 -21 4 -25 14 -2 22 -10 22 -23 0 -16 -7
-20 -30 -20 -21 0 -29 4 -27 14 2 8 4 33 4 55 0 51 3 56 32 56 20 0 22 -4 18
-26z m-563 -48 l-2 -41 -6 39 c-3 22 -12 41 -18 44 -14 4 -14 2 -17 -40 -2
-47 -16 -43 -16 5 0 35 4 46 18 49 28 7 42 -12 41 -56z m-167 9 c3 -40 1 -45
-21 -50 -13 -3 -28 -2 -34 4 -14 14 -1 42 23 48 11 3 20 12 20 20 0 10 -7 14
-20 10 -11 -3 -20 -1 -20 4 0 5 11 9 24 9 21 0 24 -5 28 -45z m58 6 c0 -22 5
-42 13 -44 7 -3 5 -6 -5 -6 -14 -1 -18 7 -18 38 0 22 -5 42 -12 44 -8 3 -6 6
5 6 13 1 17 -7 17 -38z m5185 27 c-11 -6 -24 -16 -30 -21 -34 -29 -239 -134
-365 -185 -114 -46 -245 -28 -277 38 l-12 25 127 17 c133 18 305 59 457 107
97 31 133 38 100 19z m-5512 -8 c-32 -13 -33 -70 -2 -70 11 0 17 -4 14 -10 -9
-14 -21 -12 -39 6 -32 31 -14 85 29 83 19 0 19 -1 -2 -9z m-435 -38 c3 -34
-11 -62 -32 -62 -6 0 -3 5 7 11 11 6 17 22 17 44 0 23 -5 35 -17 39 -14 4 -14
4 2 3 15 -2 21 -11 23 -35z m55 -55 c8 -6 7 -7 -3 -4 -11 2 -15 18 -16 53 l-1
49 4 -45 c2 -24 10 -48 16 -53z m37 48 c0 -25 -3 -45 -8 -45 -4 0 -6 20 -4 45
2 25 6 45 8 45 2 0 4 -20 4 -45z m53 -37 c8 -5 6 -8 -5 -8 -15 0 -18 8 -16 43
1 40 1 40 5 7 3 -19 10 -38 16 -42z m-726 25 c-3 -10 -5 -4 -5 12 0 17 2 24 5
18 2 -7 2 -21 0 -30z m754 -26 c-10 -9 -11 -8 -5 6 3 10 9 15 12 12 3 -3 0
-11 -7 -18z m-201 -97 c0 -11 -4 -20 -10 -20 -5 0 -10 -11 -10 -25 0 -14 -5
-25 -11 -25 -6 0 -8 8 -5 18 3 9 8 29 12 45 7 31 24 36 24 7z m6637 -165 c-4
-79 -25 -127 -226 -535 l-111 -224 -48 -22 -47 -22 -7 25 c-10 35 8 130 42
231 34 100 32 79 -4 -58 -14 -52 -26 -115 -26 -140 1 -42 2 -44 15 -26 8 11
15 15 15 9 0 -8 8 -8 29 0 19 7 32 21 39 43 9 32 9 32 -15 23 -31 -12 -43 -11
-43 1 0 5 6 7 13 4 8 -3 14 1 14 9 0 9 -8 13 -21 10 -12 -3 -17 -1 -10 4 5 4
9 28 8 53 -1 45 9 70 29 70 7 0 7 -4 -1 -12 -7 -7 -12 -16 -12 -22 0 -5 7 -1
15 10 12 17 12 20 -2 31 -13 10 -14 17 -5 35 l12 23 -6 -23 c-3 -15 0 -24 10
-28 9 -3 16 -14 17 -23 0 -10 2 -11 6 -3 8 21 21 13 28 -17 7 -32 -19 -86 -37
-75 -5 3 0 15 11 25 29 27 27 49 -5 49 -14 0 -23 -4 -19 -10 4 -6 10 -8 14 -6
4 3 8 -1 8 -8 0 -15 -27 -17 -28 -2 0 6 -4 2 -9 -9 -12 -27 -12 -37 -1 -31 5
4 8 -5 6 -19 -2 -25 9 -34 20 -15 4 6 10 8 14 5 10 -5 48 75 42 90 -2 5 -4 21
-6 35 -5 55 -152 320 -200 360 -16 14 -38 51 -54 93 -9 22 -7 21 56 -10 48
-24 79 -33 115 -33 l50 0 108 107 c60 59 128 120 152 135 l43 29 8 -33 c5 -17
7 -64 4 -103z m-6667 75 c0 -5 -2 -10 -4 -10 -3 0 -8 5 -11 10 -3 6 -1 10 4
10 6 0 11 -4 11 -10z m18 -45 c8 -16 8 -26 1 -31 -13 -8 -15 -5 -23 29 -8 34
7 36 22 2z m6832 -74 c25 -7 82 -32 127 -56 77 -40 81 -44 64 -59 -10 -9 -21
-16 -26 -16 -5 0 0 6 10 14 18 13 18 14 -3 25 -28 15 -35 14 -28 -4 3 -8 0
-15 -5 -15 -7 0 -9 9 -6 21 4 15 2 19 -9 15 -8 -3 -14 1 -14 10 0 11 -6 14
-16 10 -8 -3 -13 -2 -10 3 3 4 -6 13 -20 20 -31 14 -44 14 -44 0 0 -5 4 -8 9
-4 5 3 13 1 16 -5 4 -6 3 -10 -2 -9 -18 3 -27 -2 -16 -9 9 -6 7 -11 -6 -19
-11 -7 -23 -8 -32 -2 -11 7 -8 9 9 9 14 0 21 4 17 11 -4 6 -13 8 -21 5 -8 -3
-14 1 -14 10 0 10 6 14 14 11 8 -3 17 0 19 8 4 9 -6 15 -29 19 -18 4 -36 8
-40 9 -9 3 -84 -186 -77 -196 3 -6 1 -7 -4 -4 -6 4 -13 -2 -16 -13 -3 -11 -1
-20 4 -20 5 0 9 5 9 10 0 6 7 10 15 10 8 0 15 -5 15 -10 0 -7 6 -7 19 0 13 7
22 7 26 0 3 -5 11 -10 16 -10 6 0 8 4 4 9 -3 5 -1 12 5 16 6 4 7 12 3 18 -3 7
3 4 14 -6 16 -14 23 -15 29 -6 4 7 2 15 -4 17 -7 2 -9 8 -6 14 4 6 -4 19 -17
30 -23 18 -23 19 -1 8 15 -7 22 -7 22 0 0 5 -4 10 -10 10 -5 0 -10 7 -10 15 0
8 5 15 11 15 5 0 8 -4 4 -9 -3 -5 -1 -12 5 -16 5 -3 10 -2 10 3 0 4 13 18 29
30 l29 21 -12 -25 c-6 -13 -15 -24 -19 -24 -5 0 -5 -4 -2 -10 3 -6 -1 -7 -9
-4 -9 3 -16 2 -16 -4 0 -5 9 -12 20 -15 21 -5 28 -27 9 -27 -5 0 -7 5 -3 11 4
7 1 10 -7 7 -17 -6 -19 -34 -2 -31 7 2 10 -4 7 -12 -4 -8 -10 -12 -16 -9 -5 3
-14 -8 -20 -24 -11 -28 -13 -29 -25 -14 -11 15 -12 15 -13 -5 0 -13 -5 -23
-11 -23 -6 0 -8 7 -5 16 3 8 2 13 -3 9 -5 -3 -12 1 -15 7 -5 10 -7 10 -12 1
-4 -9 -11 -10 -25 -3 -15 8 -19 7 -19 -5 0 -8 5 -15 11 -15 6 0 9 -12 7 -27
-3 -25 -6 -28 -37 -25 -20 2 -31 0 -27 -6 3 -6 15 -8 26 -5 12 3 20 0 20 -6 0
-7 -5 -9 -12 -5 -7 5 -8 3 -3 -6 6 -10 12 -8 27 9 10 13 18 31 18 41 0 10 6
23 14 29 11 9 15 7 19 -9 3 -12 -1 -23 -10 -29 -13 -7 -13 -9 -1 -14 8 -3 27
5 41 16 14 12 55 46 91 76 36 29 63 57 60 62 -3 5 0 8 8 7 7 -2 12 2 11 9 -2
7 4 10 12 7 11 -5 2 -17 -33 -49 -110 -99 -172 -146 -183 -139 -7 4 -9 3 -6
-3 8 -13 -58 -77 -71 -69 -6 3 -14 1 -18 -5 -5 -8 -2 -10 7 -4 8 4 -35 -40
-96 -98 -60 -57 -111 -104 -112 -103 -2 1 29 63 69 137 84 158 175 349 209
436 14 38 27 59 34 54 5 -4 30 -13 55 -20z m-4551 -22 c15 -42 13 -78 -5 -114
-15 -32 -15 -33 2 46 3 14 -1 42 -10 62 -8 20 -11 37 -6 37 4 0 13 -14 19 -31z
m-82 -11 c-3 -7 -5 -2 -5 12 0 14 2 19 5 13 2 -7 2 -19 0 -25z m20 0 c-3 -7
-5 -2 -5 12 0 14 2 19 5 13 2 -7 2 -19 0 -25z m-117 -44 c0 -50 -2 -54 -24
-54 -13 0 -26 6 -29 13 -8 22 4 67 19 67 8 0 14 9 14 21 0 11 5 17 10 14 6 -3
10 -31 10 -61z m27 19 c-3 -10 -5 -2 -5 17 0 19 2 27 5 18 2 -10 2 -26 0 -35z
m20 0 c-3 -10 -5 -2 -5 17 0 19 2 27 5 18 2 -10 2 -26 0 -35z m4653 37 c0 -5
-2 -10 -4 -10 -3 0 -8 5 -11 10 -3 6 -1 10 4 10 6 0 11 -4 11 -10z m-4788 -57
c4 -60 3 -71 -8 -60 -9 8 -11 117 -2 117 3 0 8 -26 10 -57z m-289 27 c-3 -12
-8 -19 -11 -16 -5 6 5 36 12 36 2 0 2 -9 -1 -20z m24 -12 c-3 -7 -5 -2 -5 12
0 14 2 19 5 13 2 -7 2 -19 0 -25z m56 -17 c12 -24 12 -23 18 15 5 34 6 30 8
-23 1 -70 -12 -84 -25 -25 l-8 37 -6 -40 c-6 -35 -7 -31 -8 25 0 36 2 58 5 50
2 -8 10 -26 16 -39z m557 40 c0 -6 -4 -13 -10 -16 -5 -3 -10 1 -10 9 0 9 5 16
10 16 6 0 10 -4 10 -9z m-910 -11 c0 -5 -4 -10 -10 -10 -5 0 -10 5 -10 10 0 6
5 10 10 10 6 0 10 -4 10 -10z m-90 -55 c0 -50 2 -55 23 -56 21 -1 21 -1 -3 -8
-14 -5 -28 -6 -32 -4 -12 6 -9 123 2 123 6 0 10 -25 10 -55z m587 38 c-8 -10
-17 -31 -20 -48 -3 -24 -4 -22 -6 12 0 25 4 43 12 46 25 10 30 7 14 -10z
m-807 -3 c0 -5 -4 -10 -10 -10 -5 0 -10 5 -10 10 0 6 5 10 10 10 6 0 10 -4 10
-10z m75 -11 c-4 -5 2 -9 12 -9 15 0 15 -2 3 -10 -18 -11 -21 -60 -4 -67 20
-8 17 -25 -3 -21 -13 2 -19 16 -23 48 -6 52 -2 82 11 74 5 -3 7 -10 4 -15z
m452 -11 c-3 -7 -5 -2 -5 12 0 14 2 19 5 13 2 -7 2 -19 0 -25z m228 12 c14
-46 -25 -87 -46 -49 -15 29 -3 69 21 69 10 0 22 -9 25 -20z m4890 10 c-3 -5
-1 -10 6 -10 7 0 10 -3 6 -6 -9 -9 -28 6 -22 17 4 5 8 9 11 9 3 0 2 -4 -1 -10z
m-5823 -84 c8 5 9 1 5 -10 -4 -10 -7 -23 -8 -29 -2 -36 -17 36 -16 78 l1 50 3
-48 c3 -32 8 -45 15 -41z m43 -14 c-8 -43 -21 -31 -29 28 l-5 45 12 -35 12
-35 4 50 c4 44 5 46 9 16 2 -19 1 -50 -3 -69z m533 40 l-1 -47 -4 43 c-5 50
-28 53 -29 4 -1 -51 -14 -50 -14 1 0 35 4 46 18 50 28 6 32 -1 30 -51z m76 42
c11 -27 7 -34 -20 -34 -16 0 -24 -5 -21 -12 2 -7 12 -12 21 -12 9 1 16 -3 16
-8 0 -5 -10 -8 -22 -6 -17 2 -24 11 -26 31 -5 45 37 79 52 41z m5310 8 c-11
-7 -34 -46 -34 -57 0 -3 5 -3 12 1 7 4 8 3 4 -5 -8 -12 -26 -6 -26 10 0 16 32
59 44 59 8 0 8 -2 0 -8z m-6194 -61 c0 -38 4 -61 13 -64 6 -2 9 -8 5 -12 -4
-4 -14 -5 -23 -2 -11 5 -15 21 -15 66 0 38 -4 61 -12 64 -7 3 -3 6 10 6 20 1
22 -3 22 -58z m720 20 c0 -22 6 -42 13 -45 6 -3 3 -5 -8 -3 -15 2 -20 10 -21
33 0 16 -4 35 -8 42 -4 7 -1 12 8 12 12 0 16 -10 16 -39z m-2123 23 c-3 -3
-12 -4 -19 -1 -8 3 -5 6 6 6 11 1 17 -2 13 -5z m1813 -38 c0 -26 5 -46 13 -49
7 -3 5 -6 -5 -6 -14 -1 -18 7 -18 39 0 22 -4 40 -10 40 -5 0 -10 5 -10 10 0 6
7 10 15 10 11 0 15 -12 15 -44z m178 17 c3 -19 -1 -23 -22 -23 -19 0 -24 -4
-19 -16 3 -9 13 -14 24 -11 11 3 19 1 19 -4 0 -5 -11 -9 -24 -9 -28 0 -41 28
-32 66 9 33 49 30 54 -3z m1038 12 c-4 -24 -16 -30 -16 -7 0 12 4 22 9 22 5 0
8 -7 7 -15z m4581 1 c-3 -8 -1 -17 6 -19 7 -2 9 -8 5 -12 -4 -4 -14 -2 -22 4
-12 10 -13 16 -3 26 16 18 20 18 14 1z m-6617 -17 c0 -4 -7 -6 -16 -2 -20 8
-34 -13 -34 -53 0 -37 20 -57 45 -47 13 4 16 3 11 -5 -4 -7 -18 -12 -31 -12
-45 0 -55 105 -13 131 13 8 38 0 38 -12z m747 9 c-11 -6 -17 -22 -17 -43 0
-19 -4 -37 -10 -40 -6 -4 -10 13 -10 43 0 47 1 50 27 50 21 0 23 -2 10 -10z
m6202 -10 l45 -3 -120 -80 c-155 -104 -376 -268 -488 -364 -151 -130 -350
-303 -366 -319 -10 -11 -6 -10 15 3 36 22 171 133 280 230 246 218 674 525
733 525 36 0 165 -48 225 -84 84 -50 190 -177 203 -245 5 -21 0 -33 -17 -50
l-23 -21 29 0 c52 0 13 -18 -70 -34 -285 -52 -498 -122 -653 -215 -84 -50
-222 -158 -222 -172 0 -6 36 19 79 55 126 102 274 179 441 230 114 34 190 45
282 41 101 -5 129 -21 183 -104 65 -100 86 -161 92 -266 5 -81 2 -105 -30
-231 -20 -78 -48 -167 -62 -198 -14 -31 -85 -145 -157 -253 -72 -108 -146
-230 -165 -270 -30 -65 -61 -179 -78 -283 -4 -25 -35 -73 -110 -165 -58 -71
-124 -157 -147 -190 -41 -59 -168 -197 -279 -305 -31 -30 -82 -93 -114 -139
-53 -79 -137 -241 -138 -268 0 -6 -40 16 -89 50 -204 143 -379 236 -507 268
-46 11 -96 19 -112 17 -16 -3 -29 -2 -29 2 0 9 84 155 100 175 19 23 115 19
216 -10 106 -31 265 -111 409 -206 58 -39 109 -69 111 -66 9 8 -195 138 -311
198 -135 70 -257 110 -346 112 l-67 2 40 75 c49 90 96 170 159 268 26 40 55
96 65 125 9 28 27 72 40 97 26 51 130 157 219 221 119 86 294 240 493 434
l202 197 0 44 c0 44 0 44 -36 44 -44 0 -151 -57 -263 -140 -90 -67 -157 -146
-291 -344 -105 -157 -159 -229 -208 -284 l-33 -37 6 50 c8 64 32 167 51 227 9
26 14 53 12 60 -3 7 -8 -4 -12 -24 -11 -61 -28 -57 -21 4 35 290 94 470 247
751 136 250 203 319 416 426 45 23 82 44 82 47 0 3 -7 4 -15 0 -20 -7 -19 4 3
21 28 23 -98 -47 -163 -91 -33 -22 -79 -55 -103 -74 -81 -66 -234 -267 -295
-387 -70 -140 -160 -461 -188 -673 -9 -74 -65 -252 -78 -252 -3 0 -12 4 -20 9
-24 15 -14 450 14 636 6 38 5 39 -9 21 -9 -11 -16 -29 -16 -41 0 -11 -9 -63
-21 -115 -34 -156 -27 -395 17 -577 l16 -68 -30 -50 c-17 -28 -40 -79 -52
-114 -12 -35 -53 -119 -92 -185 -72 -122 -96 -158 -82 -122 4 11 3 17 -2 14
-5 -3 -10 13 -11 36 -1 22 -11 68 -23 101 -11 33 -26 112 -32 177 -7 65 -15
113 -18 108 -10 -15 -11 -466 -1 -539 7 -61 6 -67 -27 -130 -19 -36 -43 -78
-54 -93 -11 -15 -22 -45 -25 -65 -6 -40 -69 -168 -76 -155 -9 15 -12 162 -12
542 l0 395 72 165 c171 392 327 769 348 840 15 53 130 320 180 421 50 98 59
110 138 175 46 38 173 148 282 244 296 261 260 238 347 229 40 -5 93 -9 117
-11z m-528 -2 c-9 -11 -9 -15 1 -19 10 -4 10 -8 -2 -16 -8 -5 -17 -8 -22 -5
-9 6 12 54 25 54 5 0 4 -6 -2 -14z m-6082 -10 c7 -8 11 -30 9 -48 -2 -28 -7
-33 -28 -33 -21 0 -26 5 -28 33 -3 31 11 62 28 62 4 0 13 -6 19 -14z m179 -13
c3 -19 -1 -23 -22 -23 -17 0 -26 -5 -26 -16 0 -11 6 -15 20 -11 11 3 20 1 20
-4 0 -13 -34 -11 -48 3 -16 16 -15 51 0 66 20 20 53 10 56 -15z m834 -2 c2
-17 1 -28 -4 -25 -8 5 -12 54 -4 54 2 0 6 -13 8 -29z m-1176 -36 c1 -46 1 -47
-3 -7 -3 34 -8 43 -21 40 -11 -2 -19 -17 -23 -43 l-6 -40 -2 50 c-1 49 0 51
27 50 26 0 27 -3 28 -50z m84 44 c0 -5 -4 -7 -10 -4 -5 3 -15 3 -21 -1 -7 -4
-2 -14 15 -28 24 -19 25 -23 13 -40 -10 -14 -19 -17 -33 -11 -18 8 -17 9 4 12
28 5 28 17 0 35 -14 9 -19 20 -15 31 7 18 47 24 47 6z m-170 -18 c22 -42 -1
-88 -38 -77 -18 6 -22 15 -22 45 0 21 3 41 7 44 13 14 43 7 53 -12z m6400 -3
c0 -4 -6 -8 -14 -8 -8 0 -16 -6 -19 -12 -2 -7 -3 -5 -2 4 2 9 -2 19 -9 22 -6
2 1 4 17 3 15 -1 27 -5 27 -9z m-5912 -29 c-2 -6 -8 -10 -13 -10 -5 0 -11 4
-13 10 -2 6 4 11 13 11 9 0 15 -5 13 -11z m5862 3 c0 -5 -7 -9 -15 -9 -8 0
-15 4 -15 9 0 4 7 8 15 8 8 0 15 -4 15 -8z m-530 -137 c-5 -13 -39 -82 -74
-152 -36 -70 -84 -180 -107 -243 -22 -63 -54 -152 -70 -196 -15 -45 -44 -140
-62 -210 l-34 -129 -7 50 c-6 43 3 209 19 370 7 65 -7 43 -33 -56 -25 -91 -38
-173 -47 -294 -13 -176 -22 -225 -46 -251 -17 -18 -25 -21 -31 -12 -11 18 -10
-37 3 -91 l10 -43 -81 -77 -81 -77 -20 46 c-24 52 -59 181 -60 219 0 14 -3 20
-6 14 -9 -25 18 -155 52 -246 l35 -92 -32 -32 c-18 -18 -35 -33 -38 -33 -4 0
-28 44 -53 98 -54 111 -74 213 -63 305 7 54 12 64 78 135 39 42 92 109 118
147 26 39 65 86 85 105 l37 35 -6 -30 c-16 -87 -18 -113 -11 -200 8 -107 21
-129 20 -32 -2 105 13 243 35 324 12 44 53 139 95 219 122 234 174 306 288
400 80 65 104 73 87 29z m-6226 -130 c-1 -76 -17 -126 -29 -92 -4 9 -2 24 5
32 15 19 15 102 -1 121 -6 8 -8 22 -4 31 13 35 29 -18 29 -92z m-547 53 c-3
-8 -6 -5 -6 6 -1 11 2 17 5 13 3 -3 4 -12 1 -19z m6774 -66 c-58 -191 -73
-301 -47 -337 13 -18 15 -17 58 18 25 20 48 37 51 37 4 0 -12 -38 -35 -84 -43
-87 -64 -106 -117 -106 -48 0 -66 31 -70 127 -4 105 19 184 91 311 83 144 106
156 69 34z m-6774 11 c-3 -10 -5 -4 -5 12 0 17 2 24 5 18 2 -7 2 -21 0 -30z
m0 -95 c-3 -7 -5 -2 -5 12 0 14 2 19 5 13 2 -7 2 -19 0 -25z m0 -105 c-3 -10
-5 -4 -5 12 0 17 2 24 5 18 2 -7 2 -21 0 -30z m287 -40 c9 -45 9 -68 0 -103
-7 -25 -13 -47 -13 -49 -1 -3 -6 0 -12 6 -8 8 -8 17 0 31 15 29 17 104 2 130
-7 13 -10 31 -7 39 10 24 17 10 30 -54z m6526 7 c5 0 10 4 10 9 0 5 7 11 15
15 12 4 13 2 2 -14 -6 -11 -22 -20 -34 -20 -19 0 -23 5 -22 28 0 26 1 26 9 5
5 -13 14 -23 20 -23z m-6813 -12 c-3 -8 -6 -5 -6 6 -1 11 2 17 5 13 3 -3 4
-12 1 -19z m6598 -174 c3 -18 18 -44 33 -59 23 -23 33 -26 70 -22 30 3 42 1
38 -7 -2 -6 -37 -92 -76 -191 -39 -99 -92 -227 -117 -285 -52 -120 -106 -248
-169 -400 -37 -89 -44 -100 -44 -70 -1 146 124 736 200 945 10 28 27 79 37
115 15 53 18 59 21 35 1 -16 5 -44 7 -61z m-6598 34 c-3 -8 -6 -5 -6 6 -1 11
2 17 5 13 3 -3 4 -12 1 -19z m7 -125 c3 -21 7 -48 9 -60 2 -13 0 -23 -6 -23
-5 0 -4 -6 2 -14 8 -10 9 -16 1 -21 -5 -3 -10 -19 -10 -35 0 -30 -14 -47 -25
-30 -3 5 -1 18 5 29 16 30 17 141 1 150 -8 5 -11 17 -6 30 9 30 22 18 29 -26z
m3621 -363 c33 -4 -14 -5 -108 -2 -127 4 -173 2 -192 -8 -13 -7 -22 -18 -18
-23 3 -6 1 -7 -5 -3 -12 7 -66 -23 -58 -32 3 -2 -21 -22 -52 -42 -31 -21 -85
-65 -119 -97 -35 -33 -63 -56 -63 -51 0 12 53 61 161 148 149 122 145 120 279
119 63 -1 142 -5 175 -9z m212 -6 c-3 -3 -12 -4 -19 -1 -8 3 -5 6 6 6 11 1 17
-2 13 -5z m-67 -14 c0 -11 -376 -52 -445 -48 l-70 4 85 3 c52 2 75 6 61 10
-14 4 -26 13 -29 21 -3 13 -2 13 6 1 7 -9 32 -14 78 -14 85 -1 233 13 239 23
5 9 75 9 75 0z m120 -16 c0 -2 -9 0 -20 6 -11 6 -20 13 -20 16 0 2 9 0 20 -6
11 -6 20 -13 20 -16z m24 -50 c61 -31 116 -60 121 -66 6 -5 -44 17 -110 50
-66 32 -127 62 -135 65 -12 4 -12 6 -1 6 8 1 64 -24 125 -55z m248 -74 c59
-24 106 -46 104 -48 -9 -9 -366 150 -366 163 0 3 35 -12 78 -33 42 -21 125
-58 184 -82z m-325 68 c34 -17 61 -33 59 -35 -2 -2 -31 10 -65 28 l-62 33
-122 -13 c-91 -9 -125 -16 -134 -28 -9 -11 -13 -12 -13 -4 0 9 -12 11 -45 7
-24 -4 -71 -7 -105 -7 -43 -1 -60 -5 -60 -14 0 -8 -5 -17 -12 -21 -7 -4 -8 -3
-4 4 4 7 4 16 1 22 -15 23 -175 -107 -170 -138 1 -10 0 -11 -2 -4 -7 19 -11
16 -70 -45 -30 -32 -46 -44 -35 -27 29 43 165 170 220 205 39 25 56 29 116 30
39 0 130 9 201 18 198 28 229 27 302 -11z m-137 -9 c0 -6 -4 -7 -10 -4 -5 3
-10 11 -10 16 0 6 5 7 10 4 6 -3 10 -11 10 -16z m2218 -86 c-1 -94 21 -180 71
-288 36 -78 37 -81 21 -108 -23 -38 -27 -40 -33 -23 -4 9 -1 15 6 13 7 -1 12
8 11 20 0 12 3 20 8 17 15 -10 8 13 -31 97 -48 103 -65 173 -65 264 l0 70 -70
-22 c-38 -13 -78 -23 -90 -22 -11 0 12 9 53 20 41 11 82 24 90 29 27 16 29 12
29 -67z m1712 74 c0 -2 -10 -12 -22 -23 l-23 -19 19 23 c18 21 26 27 26 19z
m-4300 -27 c0 -5 8 -10 18 -12 15 -3 14 -5 -3 -9 -15 -4 -24 0 -32 17 -8 18
-8 21 3 17 8 -3 14 -9 14 -13z m77 9 c-9 -6 -14 -16 -11 -22 4 -7 3 -8 -1 -4
-17 15 -12 33 9 34 19 2 19 1 3 -8z m63 6 c0 -7 -30 -13 -34 -7 -3 4 4 9 15 9
10 1 19 0 19 -2z m155 -9 c-1 -6 -5 -18 -9 -27 -4 -9 -5 -28 -2 -42 4 -24 3
-26 -15 -17 -23 13 -25 33 -3 51 8 7 13 20 11 29 -2 9 1 17 8 17 7 0 12 -5 10
-11z m75 -12 c0 -2 -9 0 -20 6 -11 6 -20 13 -20 16 0 2 9 0 20 -6 11 -6 20
-13 20 -16z m-189 -7 c-10 -9 -11 -8 -5 6 3 10 9 15 12 12 3 -3 0 -11 -7 -18z
m-21 3 c0 -5 -2 -10 -4 -10 -3 0 -8 5 -11 10 -3 6 -1 10 4 10 6 0 11 -4 11
-10z m25 -19 c29 8 40 8 46 -3 13 -20 11 -25 -13 -32 -23 -6 -23 -7 5 -22 15
-8 33 -12 39 -8 6 4 8 3 5 -3 -4 -6 1 -17 10 -24 15 -12 16 -12 10 4 -9 25 8
21 39 -9 19 -20 21 -25 7 -20 -13 5 -15 4 -7 -4 6 -6 30 -14 55 -19 40 -8 41
-9 11 -10 -35 -1 -72 15 -137 59 -40 27 -41 27 -169 22 l-129 -5 -63 -42 c-45
-30 -64 -39 -68 -29 -3 9 0 11 11 7 11 -4 14 -3 9 6 -4 6 -4 11 1 10 19 -3 34
2 29 9 -3 5 11 14 30 21 19 7 32 16 30 20 -6 9 6 10 102 12 62 1 71 3 61 15
-7 8 -9 17 -5 21 3 3 6 0 6 -8 0 -11 2 -11 10 1 9 13 10 13 11 0 1 -8 1 -19 0
-23 -1 -5 9 0 23 10 13 10 22 20 20 22 -2 2 -11 -2 -21 -10 -15 -12 -16 -12
-10 4 3 9 2 17 -3 17 -6 0 -10 5 -10 11 0 8 4 8 13 1 10 -8 24 -8 52 -1z m142
-13 c-3 -8 -6 -5 -6 6 -1 11 2 17 5 13 3 -3 4 -12 1 -19z m30 -38 c-6 -22 -15
-40 -20 -40 -5 0 -7 7 -3 15 3 9 0 15 -8 15 -8 0 -16 7 -20 15 -3 8 -1 15 4
15 6 0 10 -4 10 -10 0 -5 8 -10 18 -9 11 0 12 2 4 6 -10 4 -9 8 5 19 11 8 13
13 6 14 -7 0 -13 5 -13 11 0 8 4 8 14 0 10 -9 11 -20 3 -51z m-287 16 c-14
-14 -40 -16 -40 -4 0 6 7 8 15 5 8 -4 17 -2 20 3 4 6 1 10 -5 10 -6 0 -8 5 -4
11 4 8 9 7 15 -2 4 -8 4 -18 -1 -23z m37 28 c-3 -3 -12 -4 -19 -1 -8 3 -5 6 6
6 11 1 17 -2 13 -5z m623 -17 c13 -5 13 -6 -1 -6 -8 -1 -24 6 -35 15 -19 15
-19 15 1 6 11 -5 27 -12 35 -15z m1590 -2 c-41 -14 -82 -24 -90 -24 -20 1 120
47 145 48 11 0 -14 -11 -55 -24z m-2410 1 c-7 -7 -13 -7 -20 0 -6 6 -3 10 10
10 13 0 16 -4 10 -10z m-50 0 c0 -2 -7 -7 -16 -10 -8 -3 -12 -2 -9 4 6 10 25
14 25 6z m1120 -26 c8 -5 11 -10 5 -10 -5 0 -17 5 -25 10 -8 5 -10 10 -5 10 6
0 17 -5 25 -10z m-1112 -25 c-3 -3 -9 2 -12 12 -6 14 -5 15 5 6 7 -7 10 -15 7
-18z m2339 19 c-3 -3 -12 -4 -19 -1 -8 3 -5 6 6 6 11 1 17 -2 13 -5z m-2297
-8 c0 -3 -4 -8 -10 -11 -5 -3 -10 -1 -10 4 0 6 5 11 10 11 6 0 10 -2 10 -4z
m1125 -6 c13 -6 15 -9 5 -9 -8 0 -22 4 -30 9 -18 12 -2 12 25 0z m1128 3 c-7
-2 -19 -2 -25 0 -7 3 -2 5 12 5 14 0 19 -2 13 -5z m-1763 -29 c0 -8 -4 -12
-10 -9 -5 3 -10 10 -10 16 0 5 5 9 10 9 6 0 10 -7 10 -16z m38 -1 c-6 -7 -16
-13 -22 -12 -6 0 -5 3 3 6 11 5 11 7 0 14 -10 6 -7 8 8 6 17 -1 19 -4 11 -14z
m652 7 c8 -5 11 -10 5 -10 -5 0 -17 5 -25 10 -8 5 -10 10 -5 10 6 0 17 -5 25
-10z m957 -6 c-3 -3 -12 -4 -19 -1 -8 3 -5 6 6 6 11 1 17 -2 13 -5z m-892 -14
c13 -5 14 -9 5 -9 -8 0 -24 4 -35 9 -13 5 -14 9 -5 9 8 0 24 -4 35 -9z m842 4
c-3 -3 -12 -4 -19 -1 -8 3 -5 6 6 6 11 1 17 -2 13 -5z m-54 -11 c-7 -2 -19 -2
-25 0 -7 3 -2 5 12 5 14 0 19 -2 13 -5z m-726 -9 c-3 -3 -12 -4 -19 -1 -8 3
-5 6 6 6 11 1 17 -2 13 -5z m661 -1 c-10 -2 -28 -2 -40 0 -13 2 -5 4 17 4 22
1 32 -1 23 -4z m-615 -10 c-7 -2 -19 -2 -25 0 -7 3 -2 5 12 5 14 0 19 -2 13
-5z m530 0 c-13 -2 -35 -2 -50 0 -16 2 -5 4 22 4 28 0 40 -2 28 -4z m-1345
-31 c2 -9 6 -49 9 -89 5 -77 4 -76 54 -30 10 9 19 15 19 12 0 -3 14 2 31 10
17 9 33 14 35 12 3 -2 -12 -12 -33 -22 -21 -10 -52 -28 -70 -41 -17 -13 -34
-24 -36 -24 -3 0 -7 35 -10 78 -2 42 -8 88 -12 102 -5 14 -4 21 0 17 5 -4 11
-15 13 -25z m1150 21 c-32 -2 -84 -2 -115 0 -32 2 -6 3 57 3 63 0 89 -1 58 -3z
m-1804 -44 c-15 -16 -30 -29 -32 -29 -7 0 21 34 36 43 7 5 9 13 6 19 -5 7 -2
8 5 3 9 -5 5 -15 -15 -36z m733 16 c0 -8 -4 -12 -9 -9 -5 3 -6 10 -3 15 9 13
12 11 12 -6z m138 -25 c3 -5 1 -10 -4 -10 -6 0 -11 5 -11 10 0 6 2 10 4 10 3
0 8 -4 11 -10z m-105 -41 c0 -5 -4 -7 -10 -4 -5 3 -10 1 -10 -4 0 -6 -5 -11
-11 -11 -8 0 -8 5 1 15 14 17 30 20 30 4z m80 -4 c0 -8 -2 -15 -4 -15 -2 0 -6
7 -10 15 -3 8 -1 15 4 15 6 0 10 -7 10 -15z m-1029 -18 c-10 -9 -11 -8 -5 6 3
10 9 15 12 12 3 -3 0 -11 -7 -18z m129 20 c0 -2 -10 -12 -22 -23 l-23 -19 19
23 c18 21 26 27 26 19z m-155 -67 c-9 -16 -18 -30 -21 -30 -2 0 2 14 11 30 9
17 18 30 21 30 2 0 -2 -13 -11 -30z m105 27 c0 -2 -11 -14 -24 -26 -24 -23
-25 -23 -19 -2 3 11 9 19 13 16 5 -3 11 -1 15 5 6 10 15 14 15 7z m890 -51 c0
-2 -21 -12 -47 -21 -72 -25 -186 -35 -278 -23 -67 9 -89 8 -136 -5 -63 -19
-96 -42 -101 -71 -4 -23 50 -43 67 -24 7 7 6 12 -2 15 -21 8 5 60 32 65 21 5
23 3 14 -15 -11 -19 -8 -57 6 -89 9 -23 -4 -23 -77 -1 -32 10 -58 23 -58 30 0
34 26 63 80 87 57 26 61 26 212 20 139 -6 158 -5 213 14 62 22 75 25 75 18z
m1830 0 c0 -2 -8 -10 -17 -17 -16 -13 -17 -12 -4 4 13 16 21 21 21 13z m250
-30 c0 -2 -8 -10 -17 -17 -16 -13 -17 -12 -4 4 13 16 21 21 21 13z m-2483 -28
c0 -7 4 -22 9 -32 5 -15 4 -17 -6 -11 -9 5 -11 4 -6 -4 4 -6 12 -9 17 -5 6 3
8 -5 5 -20 -3 -18 -1 -23 10 -19 9 3 14 -2 15 -18 l2 -24 4 23 c2 12 9 20 14
16 5 -3 7 -9 5 -13 -5 -8 3 -10 54 -13 57 -3 19 -16 -51 -16 -57 -1 -70 2 -65
13 3 9 0 12 -8 9 -15 -6 -25 48 -18 97 4 29 18 41 19 17z m37 6 c9 -3 16 -14
15 -23 0 -10 -2 -11 -6 -3 -2 6 -10 9 -15 6 -6 -4 -8 -2 -4 4 3 5 0 13 -6 15
-7 3 -10 6 -6 6 3 1 13 -2 22 -5z m2097 -27 c-10 -9 -11 -8 -5 6 3 10 9 15 12
12 3 -3 0 -11 -7 -18z m154 13 c3 -6 -1 -7 -9 -4 -18 7 -21 14 -7 14 6 0 13
-4 16 -10z m-2229 -29 c9 7 12 6 10 -7 -4 -26 -19 -27 -35 -2 -10 17 -10 20 0
11 9 -9 16 -9 25 -2z m87 -17 c-4 -11 -9 -12 -19 -3 -17 14 -9 30 11 23 7 -3
11 -12 8 -20z m1160 19 c-7 -2 -19 -2 -25 0 -7 3 -2 5 12 5 14 0 19 -2 13 -5z
m-1088 -12 c-9 -8 -36 -10 -30 -2 2 4 11 8 20 8 8 0 13 -3 10 -6z m1192 -17
c-3 -3 -12 -4 -19 -1 -8 3 -5 6 6 6 11 1 17 -2 13 -5z m-1212 -14 c-3 -5 -12
-10 -18 -10 -7 0 -6 4 3 10 19 12 23 12 15 0z m2245 5 c0 -2 -10 -9 -22 -15
-22 -11 -22 -10 -4 4 21 17 26 19 26 11z m-2326 -21 c5 -14 4 -15 -9 -4 -17
14 -19 20 -6 20 5 0 12 -7 15 -16z m806 6 c-8 -5 -19 -10 -25 -10 -5 0 -3 5 5
10 8 5 20 10 25 10 6 0 3 -5 -5 -10z m1194 2 c3 -5 -1 -9 -9 -9 -8 0 -12 4 -9
9 3 4 7 8 9 8 2 0 6 -4 9 -8z m-1794 -27 c0 -2 -9 -3 -19 -2 -11 0 -18 5 -15
9 4 6 34 0 34 -7z m1277 9 c-3 -3 -12 -4 -19 -1 -8 3 -5 6 6 6 11 1 17 -2 13
-5z m780 0 c-3 -3 -12 -4 -19 -1 -8 3 -5 6 6 6 11 1 17 -2 13 -5z m-1702 -14
c3 -6 -1 -7 -9 -4 -18 7 -21 14 -7 14 6 0 13 -4 16 -10z m195 6 c0 -2 -7 -7
-16 -10 -8 -3 -12 -2 -9 4 6 10 25 14 25 6z m-645 -16 c14 -7 8 -8 -20 -3 -22
3 -42 7 -44 9 -9 8 45 2 64 -6z m1452 4 c-3 -3 -12 -4 -19 -1 -8 3 -5 6 6 6
11 1 17 -2 13 -5z m-1387 -14 c-12 -8 -8 -10 15 -11 18 -1 23 -3 12 -6 -24 -6
-50 4 -42 17 3 5 12 10 18 10 7 0 6 -4 -3 -10z m512 -10 c-42 -26 -56 -26 -17
0 17 11 35 20 40 20 6 0 -5 -9 -23 -20z m1037 4 c9 -8 -85 -2 -104 6 -12 5 4
6 40 3 33 -3 62 -7 64 -9z m508 10 c-3 -3 -12 -4 -19 -1 -8 3 -5 6 6 6 11 1
17 -2 13 -5z m-1950 -29 c0 -17 -13 -18 -42 -4 -19 9 -18 9 2 5 13 -2 26 0 29
5 8 13 11 11 11 -6z m1506 8 c-7 -2 -19 -2 -25 0 -7 3 -2 5 12 5 14 0 19 -2
13 -5z m290 0 c-7 -2 -19 -2 -25 0 -7 3 -2 5 12 5 14 0 19 -2 13 -5z m-215
-10 c-10 -2 -26 -2 -35 0 -10 3 -2 5 17 5 19 0 27 -2 18 -5z m97 -3 c3 -6 -1
-7 -9 -4 -18 7 -21 14 -7 14 6 0 13 -4 16 -10z m63 3 c-10 -2 -26 -2 -35 0
-10 3 -2 5 17 5 19 0 27 -2 18 -5z m-1701 -19 c-3 -3 -12 -4 -19 -1 -8 3 -5 6
6 6 11 1 17 -2 13 -5z m43 -4 c0 -5 -5 -10 -11 -10 -5 0 -7 5 -4 10 3 6 8 10
11 10 2 0 4 -4 4 -10z m60 0 c0 -5 -12 -10 -27 -10 -22 0 -25 2 -13 10 20 13
40 13 40 0z m170 0 c-14 -4 -52 -8 -85 -7 l-60 0 50 6 c28 3 66 7 85 8 31 1
32 1 10 -7z m2317 -362 c-3 -8 -6 -5 -6 6 -1 11 2 17 5 13 3 -3 4 -12 1 -19z
m-3507 -424 c-85 -16 -205 -23 -187 -12 7 4 39 8 72 9 33 1 74 5 90 9 17 4 46
8 65 8 20 0 3 -6 -40 -14z m110 -4 c8 -5 11 -10 5 -10 -5 0 -17 5 -25 10 -8 5
-10 10 -5 10 6 0 17 -5 25 -10z m-350 -25 c-19 -7 -33 -14 -30 -15 13 -4 74
-9 175 -14 102 -6 116 -9 190 -46 44 -22 91 -50 105 -61 21 -18 18 -17 -20 4
-155 85 -156 85 -295 92 -71 3 -146 8 -165 11 l-34 6 39 19 c22 10 47 18 55
18 8 0 -1 -7 -20 -14z m414 -6 c49 -28 46 -34 -4 -9 -22 11 -40 23 -40 25 0 8
8 6 44 -16z m155 -85 c55 -30 101 -57 101 -60 0 -5 -160 79 -195 103 -41 28
-4 11 94 -43z m-829 36 c0 -5 -25 -10 -57 -10 -63 0 -64 -1 -226 -180 -37 -41
-22 -21 34 45 55 66 109 124 118 130 9 5 39 12 66 16 28 3 53 7 58 8 4 0 7 -3
7 -9z m405 -10 c71 -2 164 -25 151 -37 -2 -3 -13 0 -25 6 -11 6 -60 13 -108
15 -48 3 -162 8 -253 12 -91 4 -157 10 -148 13 9 3 81 3 160 -1 79 -4 179 -7
223 -8z m3673 -54 c97 -33 198 -88 252 -136 25 -23 33 -34 19 -25 -14 8 -29
12 -33 8 -4 -5 -6 -3 -4 3 7 25 -110 101 -138 90 -8 -3 -13 -2 -10 3 10 15
-144 71 -196 71 -23 0 -61 -38 -52 -52 4 -6 3 -8 -3 -5 -6 4 -15 -5 -22 -20
-6 -14 -14 -23 -17 -20 -6 6 20 51 50 85 26 29 64 28 154 -2z m-3484 -15 c4
-5 -3 -7 -14 -4 -23 6 -26 13 -6 13 8 0 17 -4 20 -9z m-417 -31 c-5 -18 4 -25
26 -21 5 1 6 -3 2 -9 -4 -7 -12 -7 -26 0 -11 6 -23 8 -28 6 -5 -3 -11 0 -14 8
-4 10 0 12 14 9 13 -4 19 0 19 11 0 9 3 16 6 16 4 0 4 -9 1 -20z m204 -3 c-10
-9 -11 -8 -5 6 3 10 9 15 12 12 3 -3 0 -11 -7 -18z m59 9 c0 -2 -7 -7 -16 -10
-8 -3 -12 -2 -9 4 6 10 25 14 25 6z m575 -41 c19 -15 18 -15 -10 -1 -16 8 -39
22 -50 31 -19 15 -18 15 10 1 17 -8 39 -22 50 -31z m-905 25 c0 -5 -5 -10 -11
-10 -5 0 -7 5 -4 10 3 6 8 10 11 10 2 0 4 -4 4 -10z m-5 -26 c103 -18 225 -19
226 -1 0 10 2 10 6 0 2 -7 12 -13 21 -13 15 0 15 2 2 10 -8 5 -10 10 -5 10 6
0 19 -9 29 -21 11 -13 26 -19 39 -17 13 2 31 -4 41 -14 11 -10 15 -18 9 -18
-5 0 -13 3 -17 7 -16 17 -107 32 -192 33 -50 0 -115 4 -145 9 -209 35 -202 35
-255 12 -26 -12 -81 -46 -121 -77 -40 -30 -73 -52 -73 -50 0 10 147 120 185
138 44 20 97 19 250 -8z m170 6 c3 -5 1 -10 -4 -10 -6 0 -11 5 -11 10 0 6 2
10 4 10 3 0 8 -4 11 -10z m-188 -45 c67 -9 157 -15 200 -14 66 2 88 -2 136
-24 39 -18 57 -32 57 -44 -1 -17 -1 -17 -11 -1 -20 35 -93 57 -187 57 -48 0
-123 5 -167 10 -44 6 -112 14 -152 17 -69 7 -74 5 -122 -25 -78 -50 -118 -84
-220 -184 -52 -50 -75 -69 -51 -42 67 78 140 145 226 206 84 60 104 69 144 63
14 -2 80 -11 147 -19z m1008 -10 l20 -16 -20 10 c-11 5 -29 17 -40 26 l-20 16
20 -10 c11 -5 29 -17 40 -26z m2721 -72 c-31 -55 -56 -105 -56 -111 0 -7 -5
-12 -11 -12 -5 0 -7 -5 -4 -10 4 -6 11 -8 16 -5 5 4 9 1 9 -5 0 -7 -7 -9 -16
-6 -9 3 -20 6 -26 6 -6 0 -4 8 4 18 8 9 41 66 73 125 31 60 59 106 62 104 2
-3 -21 -50 -51 -104z m-2616 0 c0 -7 -61 31 -73 46 -7 8 7 2 31 -14 23 -15 42
-30 42 -32z m-674 25 l19 -23 -25 20 c-14 11 -27 21 -29 22 -2 2 0 3 6 3 5 0
18 -10 29 -22z m3897 -36 c24 -24 32 -39 23 -39 -8 0 -13 4 -10 8 2 4 -6 16
-19 26 -22 17 -42 43 -35 43 2 0 21 -17 41 -38z m-4366 12 c-3 -3 -12 -4 -19
-1 -8 3 -5 6 6 6 11 1 17 -2 13 -5z m1403 -108 c47 -14 77 -25 66 -25 -41 -2
-297 97 -311 119 -3 5 32 -9 77 -30 46 -21 122 -50 168 -64z m-1623 79 c0 -8
-4 -12 -9 -9 -5 3 -6 10 -3 15 9 13 12 11 12 -6z m193 -17 c0 -4 -11 -7 -24
-6 -14 1 -23 5 -21 8 5 9 45 7 45 -2z m43 -19 c3 -12 3 -18 0 -15 -4 3 -13 0
-21 -7 -11 -8 -14 -8 -9 0 4 6 4 13 0 16 -5 2 -2 2 5 1 6 -2 12 3 12 11 0 22
7 18 13 -6z m3762 11 c3 -6 -1 -7 -9 -4 -18 7 -21 14 -7 14 6 0 13 -4 16 -10z
m-3610 -29 c-6 -5 -25 10 -25 20 0 5 6 4 14 -3 8 -7 12 -15 11 -17z m-327 -19
c-17 -2 -47 -14 -67 -26 -56 -35 -61 -38 -61 -32 0 9 100 66 116 66 14 0 15 2
3 17 -11 13 -8 13 13 -2 l26 -20 -30 -3z m66 22 c3 -8 2 -12 -4 -9 -6 3 -10
10 -10 16 0 14 7 11 14 -7z m4523 -2 c9 -15 8 -19 -3 -19 -8 0 -12 3 -9 5 3 3
0 11 -6 19 -6 7 -7 13 -3 13 5 0 14 -8 21 -18z m-4683 -14 c-7 -18 -54 -51
-54 -38 0 5 5 10 11 10 5 0 7 5 3 12 -4 6 -3 8 3 5 6 -4 16 0 23 8 15 18 21
19 14 3z m351 2 c-3 -5 -12 -10 -18 -10 -7 0 -6 4 3 10 19 12 23 12 15 0z
m-432 -35 c-22 -30 -29 -31 -43 -2 -10 19 -10 20 3 5 13 -16 15 -16 30 3 24
27 31 24 10 -6z m244 19 c-3 -3 -12 -4 -19 -1 -8 3 -5 6 6 6 11 1 17 -2 13 -5z
m116 -14 c15 0 27 -4 27 -9 0 -10 -55 -5 -105 10 -27 8 -26 8 10 4 22 -3 52
-5 68 -5z m4457 -25 c13 -14 21 -25 18 -25 -2 0 -15 11 -28 25 -13 14 -21 25
-18 25 2 0 15 -11 28 -25z m-2915 5 c27 -7 27 -8 5 -8 -14 0 -38 4 -55 8 -27
7 -27 8 -5 8 14 0 39 -4 55 -8z m-1295 -4 c0 -2 -8 -10 -17 -17 -16 -13 -17
-12 -4 4 13 16 21 21 21 13z m3680 0 c0 -2 -7 -7 -16 -10 -8 -3 -12 -2 -9 4 6
10 25 14 25 6z m-3779 -24 c-7 -2 -18 1 -23 6 -8 8 -4 9 13 5 13 -4 18 -8 10
-11z m54 8 c-3 -5 -12 -10 -18 -10 -7 0 -6 4 3 10 19 12 23 12 15 0z m1445 0
c20 -6 21 -8 5 -8 -11 0 -33 4 -50 8 -27 7 -27 8 -5 8 14 0 36 -4 50 -8z
m-1970 -3 c0 -2 -10 -12 -21 -23 -22 -19 -22 -19 -10 4 10 18 31 31 31 19z
m3890 -4 c0 -5 -73 -8 -163 -9 -101 0 -140 2 -102 6 87 10 265 11 265 3z m120
-9 c0 -2 -26 -3 -57 -3 -54 2 -55 2 -18 8 38 6 75 3 75 -5z m-1925 -3 c26 -6
31 -9 15 -9 -14 -1 -43 3 -65 7 -26 6 -31 9 -15 9 14 1 43 -3 65 -7z m1475 -5
c0 -2 -18 -6 -40 -8 -22 -2 -40 0 -40 4 0 5 18 8 40 8 22 0 40 -2 40 -4z
m-3695 -16 c3 -5 1 -10 -4 -10 -6 0 -11 5 -11 10 0 6 2 10 4 10 3 0 8 -4 11
-10z m85 -9 c0 -4 -16 -15 -35 -24 -19 -9 -35 -13 -35 -8 0 5 13 14 30 21 16
7 27 17 23 23 -3 6 -1 7 5 3 7 -4 12 -11 12 -15z m2223 12 c-7 -2 -21 -2 -30
0 -10 3 -4 5 12 5 17 0 24 -2 18 -5z m1212 -8 c-49 -7 -103 -13 -120 -13 -43
1 122 25 170 25 22 0 0 -5 -50 -12z m-1125 -5 c20 -6 21 -8 5 -8 -11 0 -33 4
-50 8 -27 7 -27 8 -5 8 14 0 36 -4 50 -8z m77 -16 c-3 -3 -12 -4 -19 -1 -8 3
-5 6 6 6 11 1 17 -2 13 -5z m888 0 c-25 -9 -125 -20 -125 -13 0 4 17 10 38 12
52 5 99 6 87 1z m-2695 -11 c-58 -9 -109 -26 -114 -39 -3 -8 0 -14 6 -14 6 0
9 -2 6 -5 -3 -3 -13 -2 -22 1 -14 5 -15 9 -4 16 8 5 -37 7 -114 4 -137 -5
-137 -5 -253 -76 -38 -24 -97 -56 -131 -71 -66 -30 -94 -54 -72 -61 7 -3 3 -7
-10 -10 -58 -15 12 52 90 86 32 14 92 47 135 74 43 27 87 52 98 57 11 4 81 11
155 15 75 4 145 12 155 18 11 6 38 11 60 10 24 0 30 -2 15 -5z m1868 0 c-10
-2 -26 -2 -35 0 -10 3 -2 5 17 5 19 0 27 -2 18 -5z m2029 -8 c0 -8 -4 -12 -9
-9 -5 3 -6 10 -3 15 9 13 12 11 12 -6z m-1959 -2 c-10 -2 -26 -2 -35 0 -10 3
-2 5 17 5 19 0 27 -2 18 -5z m582 -4 c-25 -4 -65 -7 -90 -7 -45 1 -45 1 10 8
30 4 71 7 90 7 31 0 30 0 -10 -8z m-3270 -7 c0 -4 -9 -13 -20 -20 -24 -15 -26
-9 -4 12 17 18 24 20 24 8z m769 -13 c-16 -10 -23 -4 -14 10 3 6 11 8 17 5 6
-4 5 -9 -3 -15z m2061 13 c0 -4 -19 -6 -42 -4 -71 5 -77 10 -15 11 31 0 57 -2
57 -7z m-2751 -6 c-20 -17 -49 -25 -55 -14 -4 6 -3 8 2 5 6 -3 16 -2 24 4 14
8 38 13 29 5z m2983 -3 c-40 -2 -103 -2 -140 0 -37 2 -4 3 73 3 77 0 107 -2
67 -3z m-3052 -28 c0 -2 -9 -9 -20 -15 -16 -9 -18 -8 -14 5 5 13 34 22 34 10z
m527 -1 c-3 -3 -12 -4 -19 -1 -8 3 -5 6 6 6 11 1 17 -2 13 -5z m88 -34 c-3 -5
-14 -10 -23 -9 -14 0 -13 2 3 9 27 11 27 11 20 0z m145 0 c0 -5 -2 -10 -4 -10
-3 0 -8 5 -11 10 -3 6 -1 10 4 10 6 0 11 -4 11 -10z m3407 -12 c-3 -8 -6 -5
-6 6 -1 11 2 17 5 13 3 -3 4 -12 1 -19z m776 -77 c-32 -50 -61 -91 -64 -91 -3
0 21 42 55 94 33 51 63 92 64 90 2 -1 -22 -43 -55 -93z m-4273 33 c0 -3 -7 -1
-15 6 -8 7 -15 17 -15 22 0 5 7 3 15 -6 8 -8 15 -18 15 -22z m-245 6 c-3 -5
-12 -10 -18 -10 -7 0 -6 4 3 10 19 12 23 12 15 0z m35 6 c0 -3 -4 -8 -10 -11
-5 -3 -10 -1 -10 4 0 6 5 11 10 11 6 0 10 -2 10 -4z m74 -11 c3 -8 1 -15 -4
-15 -6 0 -10 7 -10 15 0 8 2 15 4 15 2 0 6 -7 10 -15z m-209 -24 c-6 -5 -25
10 -25 20 0 5 6 4 14 -3 8 -7 12 -15 11 -17z m390 8 c-4 -5 -12 -9 -18 -8 -9
0 -8 2 1 6 6 2 9 10 6 15 -4 7 -2 8 5 4 6 -4 9 -12 6 -17z m3669 5 c3 -8 2
-12 -4 -9 -6 3 -10 10 -10 16 0 14 7 11 14 -7z m-4164 -14 c0 -5 -2 -10 -4
-10 -3 0 -8 5 -11 10 -3 6 -1 10 4 10 6 0 11 -4 11 -10z m270 -3 c0 -4 3 -6 8
-4 4 3 27 1 52 -4 30 -5 9 -6 -64 -3 -59 2 -112 7 -116 9 -5 3 -11 1 -15 -5
-3 -5 -11 -10 -18 -10 -6 0 -3 6 6 13 19 13 147 18 147 4z m-243 -19 c-3 -8
-6 -5 -6 6 -1 11 2 17 5 13 3 -3 4 -12 1 -19z m407 4 c5 -9 -39 -10 -48 -2 -3
3 6 7 19 8 13 1 26 -2 29 -6z m-354 -10 c0 -5 -12 -14 -27 -21 l-28 -12 25 21
c29 22 30 23 30 12z m410 -14 c0 -5 -9 -4 -20 2 -11 6 -20 12 -20 14 0 2 9 2
20 -1 11 -3 20 -9 20 -15z m3275 4 c-3 -3 -11 0 -18 7 -9 10 -8 11 6 5 10 -3
15 -9 12 -12z m463 -17 c-3 -3 -9 2 -12 12 -6 14 -5 15 5 6 7 -7 10 -15 7 -18z
m-4218 3 c0 -4 -12 -8 -26 -8 -14 0 -23 4 -20 8 2 4 14 8 25 8 12 0 21 -4 21
-8z m-70 -8 c0 -4 -13 -10 -29 -12 -18 -3 -27 0 -25 6 5 13 54 18 54 6z m610
-2 c0 -10 -9 -9 -35 2 -17 8 -16 8 8 7 15 -1 27 -5 27 -9z m3570 2 c0 -5 -5
-10 -11 -10 -5 0 -7 5 -4 10 3 6 8 10 11 10 2 0 4 -4 4 -10z m-3480 -30 c8 -5
11 -10 5 -10 -5 0 -17 5 -25 10 -8 5 -10 10 -5 10 6 0 17 -5 25 -10z m-697 -7
c-7 -2 -19 -2 -25 0 -7 3 -2 5 12 5 14 0 19 -2 13 -5z m4284 -15 c-3 -8 -6 -5
-6 6 -1 11 2 17 5 13 3 -3 4 -12 1 -19z m-3512 2 c25 -11 -1 -11 -35 0 -20 6
-21 8 -5 8 11 0 29 -3 40 -8z m3572 -7 c-4 -3 -1 -13 6 -22 11 -14 10 -14 -5
-2 -16 12 -16 31 -1 31 4 0 3 -3 0 -7z m363 -13 c-6 -11 -13 -20 -16 -20 -2 0
0 9 6 20 6 11 13 20 16 20 2 0 0 -9 -6 -20z m-3870 0 c18 -12 2 -12 -25 0 -13
6 -15 9 -5 9 8 0 22 -4 30 -9z m3317 -32 c-3 -7 -5 -2 -5 12 0 14 2 19 5 13 2
-7 2 -19 0 -25z m-3270 16 c-3 -3 -12 -4 -19 -1 -8 3 -5 6 6 6 11 1 17 -2 13
-5z m663 -11 c22 -10 40 -21 40 -25 0 -4 -18 2 -40 13 -40 21 -89 23 -135 4
l-20 -8 20 16 c26 21 85 21 135 0z m1586 -23 c0 -12 -4 -16 -9 -11 -5 5 -6 14
-3 20 10 15 12 14 12 -9z m1520 -27 c-19 -27 -63 -88 -97 -138 -60 -86 -92
-128 -74 -95 21 38 111 168 137 199 16 18 27 40 24 48 -3 8 -2 12 3 9 5 -3 14
1 21 9 27 33 18 12 -14 -32z m-3619 25 c-8 -4 -27 -3 -43 1 -26 8 -25 9 13 8
25 -1 37 -4 30 -9z m343 5 c-8 -3 -24 -10 -35 -15 -20 -9 -20 -9 -1 6 11 9 27
16 35 15 14 0 14 -1 1 -6z m2504 -11 c3 -5 -1 -9 -9 -9 -8 0 -12 4 -9 9 3 4 7
8 9 8 2 0 6 -4 9 -8z m-2799 -12 c3 -5 1 -10 -4 -10 -6 0 -11 5 -11 10 0 6 2
10 4 10 3 0 8 -4 11 -10z m613 -7 c-10 -2 -26 -2 -35 0 -10 3 -2 5 17 5 19 0
27 -2 18 -5z m148 -11 c-10 -2 -22 0 -28 6 -6 6 0 7 19 4 21 -5 23 -7 9 -10z
m-673 1 c-7 -2 -19 -2 -25 0 -7 3 -2 5 12 5 14 0 19 -2 13 -5z m65 0 c-10 -2
-26 -2 -35 0 -10 3 -2 5 17 5 19 0 27 -2 18 -5z m677 -3 c3 -5 -1 -10 -10 -10
-9 0 -13 5 -10 10 3 6 8 10 10 10 2 0 7 -4 10 -10z m30 -10 c3 -5 1 -10 -4
-10 -6 0 -11 5 -11 10 0 6 2 10 4 10 3 0 8 -4 11 -10z m48 -17 c-7 -2 -19 -2
-25 0 -7 3 -2 5 12 5 14 0 19 -2 13 -5z m64 -20 c-7 -6 -46 10 -41 18 3 5 14
3 24 -3 11 -7 18 -13 17 -15z m40 -9 c-3 -3 -12 -4 -19 -1 -8 3 -5 6 6 6 11 1
17 -2 13 -5z m133 -39 c19 -7 28 -13 20 -13 -8 0 -31 6 -50 13 -19 7 -28 13
-20 13 8 0 31 -6 50 -13z m152 -52 c40 -14 78 -30 83 -35 6 -5 -28 5 -75 22
-78 29 -103 40 -87 40 3 0 39 -12 79 -27z m1158 -3 c0 -5 -7 -7 -15 -4 -8 4
-15 8 -15 10 0 2 7 4 15 4 8 0 15 -4 15 -10z m598 -26 c-4 -3 -12 5 -18 18
-12 22 -12 22 6 6 10 -10 15 -20 12 -24z m-493 6 c-3 -5 -14 -10 -23 -9 -14 0
-13 2 3 9 27 11 27 11 20 0z m-231 -39 c-2 -3 -12 3 -22 13 -16 17 -16 18 5 5
12 -7 20 -15 17 -18z m261 19 c3 -6 -1 -7 -9 -4 -18 7 -21 14 -7 14 6 0 13 -4
16 -10z m-1135 -16 c0 -2 -7 -4 -15 -4 -8 0 -15 4 -15 10 0 5 7 7 15 4 8 -4
15 -8 15 -10z m1183 9 c-7 -2 -19 -2 -25 0 -7 3 -2 5 12 5 14 0 19 -2 13 -5z
m-1109 -29 c26 -9 45 -18 43 -20 -2 -2 -28 5 -58 15 -30 11 -49 20 -43 20 6 1
32 -6 58 -15z m1234 9 c-10 -2 -26 -2 -35 0 -10 3 -2 5 17 5 19 0 27 -2 18 -5z
m85 -10 c-7 -2 -21 -2 -30 0 -10 3 -4 5 12 5 17 0 24 -2 18 -5z m78 -11 c-7
-2 -18 1 -23 6 -8 8 -4 9 13 5 13 -4 18 -8 10 -11z m-326 -37 c11 -9 2 -7 -20
6 -22 12 -44 26 -50 32 -16 15 48 -20 70 -38z m403 38 c-10 -2 -28 -2 -40 0
-13 2 -5 4 17 4 22 1 32 -1 23 -4z m102 -9 c0 -2 -9 -4 -20 -4 -11 0 -20 4
-20 9 0 5 9 7 20 4 11 -3 20 -7 20 -9z m258 -38 c-18 -24 -35 -42 -37 -40 -4
3 58 84 65 84 3 0 -10 -20 -28 -44z m-1713 14 c3 -6 -1 -7 -9 -4 -18 7 -21 14
-7 14 6 0 13 -4 16 -10z m84 -16 c10 -9 -45 -3 -59 6 -11 7 -5 8 20 4 19 -4
37 -8 39 -10z m51 -14 c18 -12 2 -12 -25 0 -13 6 -15 9 -5 9 8 0 22 -4 30 -9z
m98 -24 c8 -9 -62 5 -72 15 -5 4 8 4 29 -1 20 -4 39 -11 43 -14z m773 7 c13
-17 13 -17 -6 -3 -11 8 -22 16 -24 17 -2 2 0 3 6 3 6 0 17 -8 24 -17z m-725
-21 c-10 -2 -22 0 -28 6 -6 6 0 7 19 4 21 -5 23 -7 9 -10z m1301 3 c0 -8 -4
-12 -9 -9 -5 3 -6 10 -3 15 9 13 12 11 12 -6z m-117 1 c0 -2 -7 -7 -16 -10 -8
-3 -12 -2 -9 4 6 10 25 14 25 6z m-1133 -12 c-3 -3 -12 -4 -19 -1 -8 3 -5 6 6
6 11 1 17 -2 13 -5z m1327 -19 c-9 -14 -18 -25 -20 -25 -2 0 2 11 8 25 6 14
15 25 20 25 5 0 1 -11 -8 -25z m-555 -11 c14 -12 -19 -1 -35 12 -18 14 -18 14
6 3 14 -6 27 -13 29 -15z m-604 -4 c25 -11 -1 -11 -35 0 -20 6 -21 8 -5 8 11
0 29 -3 40 -8z m885 0 c-8 -5 -19 -10 -25 -10 -5 0 -3 5 5 10 8 5 20 10 25 10
6 0 3 -5 -5 -10z m-230 -16 c0 -2 -7 -4 -15 -4 -8 0 -15 4 -15 10 0 5 7 7 15
4 8 -4 15 -8 15 -10z m-554 -12 c-10 -2 -22 0 -28 6 -6 6 0 7 19 4 21 -5 23
-7 9 -10z m734 14 c0 -2 -7 -7 -16 -10 -8 -3 -12 -2 -9 4 6 10 25 14 25 6z
m-82 -13 c-10 -2 -28 -2 -40 0 -13 2 -5 4 17 4 22 1 32 -1 23 -4z m356 -28
c-14 -19 -29 -35 -31 -35 -5 0 7 18 36 53 26 31 23 18 -5 -18z m-887 9 c-3 -3
-12 -4 -19 -1 -8 3 -5 6 6 6 11 1 17 -2 13 -5z m82 -10 c10 -9 -45 -3 -59 6
-11 7 -5 8 20 4 19 -4 37 -8 39 -10z m61 -14 c11 -8 7 -9 -15 -4 -37 8 -45 14
-19 14 10 0 26 -5 34 -10z m460 -24 c0 -2 -7 -7 -16 -10 -8 -3 -12 -2 -9 4 6
10 25 14 25 6z m-323 -22 c-3 -3 -12 -4 -19 -1 -8 3 -5 6 6 6 11 1 17 -2 13
-5z m563 3 c0 -2 -15 -16 -32 -33 l-33 -29 29 33 c28 30 36 37 36 29z m-475
-32 c28 -13 45 -24 38 -24 -6 -1 -35 10 -65 24 -29 14 -46 25 -38 24 8 0 38
-11 65 -24z m95 5 c0 -5 -8 -10 -17 -10 -15 0 -16 2 -3 10 19 12 20 12 20 0z
m10 -50 c19 -11 31 -19 25 -19 -5 0 -26 8 -45 19 -19 11 -30 19 -25 19 6 0 26
-8 45 -19z m287 3 c-9 -10 -31 -27 -49 -37 -40 -23 -35 -17 17 23 46 34 54 38
32 14z m-77 -3 c0 -5 -5 -10 -11 -10 -5 0 -7 5 -4 10 3 6 8 10 11 10 2 0 4 -4
4 -10z m-115 -40 c3 -6 -1 -7 -9 -4 -18 7 -21 14 -7 14 6 0 13 -4 16 -10z m94
-16 c9 -9 -55 -3 -69 6 -11 7 -3 8 25 4 22 -3 42 -8 44 -10z"/>
<path d="M1470 10056 c0 -43 2 -46 26 -46 23 0 25 3 22 43 -2 35 -7 43 -25 45
-21 3 -23 -1 -23 -42z"/>
<path d="M1666 10006 c-3 -13 -9 -31 -12 -40 -4 -11 -1 -16 10 -16 12 0 16 10
16 40 0 45 -5 51 -14 16z"/>
<path d="M1320 10071 c-13 -25 -13 -188 -1 -196 19 -11 31 36 31 124 0 90 -9
111 -30 72z"/>
<path d="M1051 9959 c-15 -44 -14 -69 4 -69 11 0 15 12 15 50 0 28 -2 50 -4
50 -2 0 -9 -14 -15 -31z"/>
<path d="M1081 9904 c0 -11 3 -14 6 -6 3 7 2 16 -1 19 -3 4 -6 -2 -5 -13z"/>
<path d="M9784 9316 c-17 -9 -19 -14 -8 -24 18 -17 27 -15 54 8 13 11 18 20
12 20 -6 0 -14 -4 -17 -10 -3 -5 -12 -10 -18 -9 -9 0 -9 2 1 6 13 5 17 24 5
22 -5 -1 -17 -6 -29 -13z"/>
<path d="M7327 8388 c4 -7 8 -17 9 -23 0 -5 2 -16 2 -23 1 -7 7 -10 13 -6 7 4
10 1 7 -7 -3 -8 -11 -13 -17 -11 -7 1 -10 -2 -7 -7 3 -5 15 -7 26 -4 11 3 20
0 20 -6 0 -6 5 -11 11 -11 7 0 6 8 -4 23 -11 17 -12 28 -5 42 8 14 7 21 -8 32
-23 17 -58 18 -47 1z m43 -13 c7 -8 11 -15 9 -16 -34 -7 -37 -5 -36 12 2 23
10 24 27 4z"/>
<path d="M7250 8380 c-8 -5 -12 -11 -10 -14 3 -2 14 2 24 10 22 15 10 19 -14
4z"/>
<path d="M7293 8375 c0 -8 4 -15 9 -15 4 0 8 4 8 9 0 6 -4 12 -8 15 -5 3 -9
-1 -9 -9z"/>
<path d="M6990 8359 c0 -5 -4 -7 -10 -4 -5 3 -17 2 -26 -3 -15 -8 -15 -10 0
-15 11 -4 15 -3 11 4 -4 6 -1 9 6 8 8 -1 21 1 29 4 8 3 24 8 35 10 12 3 7 5
-12 6 -18 0 -33 -4 -33 -10z"/>
<path d="M7190 8359 c0 -5 5 -7 12 -3 8 5 9 2 5 -9 -3 -9 -2 -19 2 -22 5 -2
11 6 13 20 4 19 1 25 -13 25 -11 0 -19 -5 -19 -11z"/>
<path d="M7392 8350 c-7 -12 -8 -20 -2 -20 5 0 10 5 10 11 0 5 4 8 8 5 5 -3 9
1 9 9 0 21 -10 19 -25 -5z"/>
<path d="M7436 8346 c3 -9 13 -16 22 -16 8 0 13 1 11 3 -2 1 -12 9 -22 16 -15
12 -17 12 -11 -3z"/>
<path d="M7245 8340 c-16 -7 -17 -9 -3 -9 9 -1 20 4 23 9 7 11 7 11 -20 0z"/>
<path d="M6985 8320 c3 -5 8 -10 11 -10 2 0 4 5 4 10 0 6 -5 10 -11 10 -5 0
-7 -4 -4 -10z"/>
<path d="M6955 8310 c3 -5 8 -10 11 -10 2 0 4 5 4 10 0 6 -5 10 -11 10 -5 0
-7 -4 -4 -10z"/>
<path d="M7009 8303 c-13 -16 -12 -17 4 -4 9 7 17 15 17 17 0 8 -8 3 -21 -13z"/>
<path d="M7105 8309 c-11 -16 -1 -19 13 -3 7 8 8 14 3 14 -5 0 -13 -5 -16 -11z"/>
<path d="M7246 8307 c3 -8 10 -14 17 -14 7 0 21 -4 32 -8 28 -11 16 0 -22 19
-25 12 -31 13 -27 3z"/>
<path d="M6841 8296 c-13 -7 -20 -15 -15 -18 5 -3 18 3 28 13 23 22 20 23 -13
5z"/>
<path d="M6948 8283 c7 -3 16 -2 19 1 4 3 -2 6 -13 5 -11 0 -14 -3 -6 -6z"/>
<path d="M7030 8286 c0 -2 7 -7 16 -10 8 -3 12 -2 9 4 -6 10 -25 14 -25 6z"/>
<path d="M6780 8276 c0 -2 9 -6 20 -9 11 -3 18 -1 14 4 -5 9 -34 13 -34 5z"/>
<path d="M6904 8262 c-9 -14 -8 -18 5 -18 9 0 17 8 17 18 0 10 -3 18 -6 18 -3
0 -10 -8 -16 -18z"/>
<path d="M7014 8272 c4 -7 2 -21 -5 -30 -12 -15 -11 -15 6 0 16 15 17 20 6 30
-11 11 -13 10 -7 0z"/>
<path d="M7234 8265 c3 -23 12 -26 13 -5 1 11 -2 20 -7 20 -4 0 -7 -7 -6 -15z"/>
<path d="M7180 8260 c0 -5 7 -10 15 -10 19 0 20 -18 0 -22 -10 -2 -5 -7 12
-16 17 -7 23 -8 16 -1 -6 6 -9 17 -6 24 2 8 -5 18 -16 25 -14 7 -21 7 -21 0z"/>
<path d="M7057 8249 c7 -7 15 -10 18 -7 3 3 -2 9 -12 12 -14 6 -15 5 -6 -5z"/>
<path d="M7335 8240 c3 -5 8 -10 11 -10 2 0 4 5 4 10 0 6 -5 10 -11 10 -5 0
-7 -4 -4 -10z"/>
<path d="M6941 8214 c0 -11 3 -14 6 -6 3 7 2 16 -1 19 -3 4 -6 -2 -5 -13z"/>
<path d="M7260 8220 c0 -5 5 -10 11 -10 5 0 7 5 4 10 -3 6 -8 10 -11 10 -2 0
-4 -4 -4 -10z"/>
<path d="M6730 8195 c0 -8 4 -15 8 -15 5 0 9 7 9 15 0 8 -4 15 -9 15 -4 0 -8
-7 -8 -15z"/>
<path d="M7284 8189 c-4 -7 -3 -9 4 -5 5 3 13 0 15 -6 4 -9 6 -10 6 -1 1 17
-16 25 -25 12z"/>
<path d="M7017 8179 c7 -7 15 -10 18 -7 3 3 -2 9 -12 12 -14 6 -15 5 -6 -5z"/>
<path d="M7143 8175 c0 -8 4 -12 9 -9 5 3 6 10 3 15 -9 13 -12 11 -12 -6z"/>
<path d="M6982 8171 c-11 -6 -9 -9 6 -13 15 -4 19 -2 15 8 -6 16 -4 16 -21 5z"/>
<path d="M6721 8154 c0 -11 3 -14 6 -6 3 7 2 16 -1 19 -3 4 -6 -2 -5 -13z"/>
<path d="M7220 8160 c-9 -6 -10 -10 -3 -10 6 0 15 5 18 10 8 12 4 12 -15 0z"/>
<path d="M7115 8149 c-4 -6 -5 -12 -2 -15 2 -3 7 2 10 11 7 17 1 20 -8 4z"/>
<path d="M7180 8135 c-17 -21 -9 -27 13 -10 10 7 14 16 9 19 -5 3 -15 -1 -22
-9z"/>
<path d="M7313 8140 c-29 -12 -29 -15 2 -15 14 0 25 6 25 13 0 6 -1 12 -2 11
-2 0 -13 -4 -25 -9z"/>
<path d="M6772 8120 c7 -10 14 -18 15 -16 6 6 -9 36 -18 36 -5 0 -4 -9 3 -20z"/>
<path d="M6720 8100 c-6 -11 -8 -20 -6 -20 3 0 10 9 16 20 6 11 8 20 6 20 -3
0 -10 -9 -16 -20z"/>
<path d="M7071 8104 c0 -11 3 -14 6 -6 3 7 2 16 -1 19 -3 4 -6 -2 -5 -13z"/>
<path d="M7096 8107 c3 -8 1 -18 -5 -22 -6 -3 -11 -11 -11 -16 0 -6 7 -4 15 5
17 17 19 32 5 41 -5 3 -7 0 -4 -8z"/>
<path d="M7314 8109 c3 -17 46 -19 46 -2 0 10 -5 11 -19 3 -13 -7 -21 -7 -24
0 -3 6 -4 5 -3 -1z"/>
<path d="M7190 8100 c0 -5 5 -10 11 -10 5 0 7 5 4 10 -3 6 -8 10 -11 10 -2 0
-4 -4 -4 -10z"/>
<path d="M7233 8094 c0 -16 13 -19 21 -5 3 5 0 11 -7 14 -8 3 -14 -1 -14 -9z"/>
<path d="M7167 8093 c-4 -3 -7 -11 -7 -17 0 -6 5 -5 12 2 6 6 9 14 7 17 -3 3
-9 2 -12 -2z"/>
<path d="M6706 8053 c-6 -14 -5 -15 5 -6 7 7 10 15 7 18 -3 3 -9 -2 -12 -12z"/>
<path d="M7345 8060 c-3 -5 -1 -10 4 -10 6 0 11 5 11 10 0 6 -2 10 -4 10 -3 0
-8 -4 -11 -10z"/>
<path d="M7161 8041 c-8 -5 -9 -11 -3 -15 5 -3 12 1 16 9 6 17 6 18 -13 6z"/>
<path d="M7275 8020 c1 -13 7 -26 13 -28 16 -5 15 10 -1 33 -13 17 -14 16 -12
-5z"/>
<path d="M7175 8010 c-3 -5 -1 -10 4 -10 6 0 11 5 11 10 0 6 -2 10 -4 10 -3 0
-8 -4 -11 -10z"/>
<path d="M7375 8000 c3 -5 8 -10 11 -10 2 0 4 5 4 10 0 6 -5 10 -11 10 -5 0
-7 -4 -4 -10z"/>
<path d="M6807 7979 c4 -13 8 -18 11 -10 2 7 -1 18 -6 23 -8 8 -9 4 -5 -13z"/>
<path d="M6681 7983 c-1 -6 -4 -20 -7 -30 -5 -17 -5 -17 6 0 6 10 9 23 6 30
-3 9 -5 9 -5 0z"/>
<path d="M6875 7979 c-4 -6 -5 -12 -2 -15 2 -3 7 2 10 11 7 17 1 20 -8 4z"/>
<path d="M7476 7977 c3 -10 9 -15 12 -12 3 3 0 11 -7 18 -10 9 -11 8 -5 -6z"/>
<path d="M7008 7973 c6 -2 18 -2 25 0 6 3 1 5 -13 5 -14 0 -19 -2 -12 -5z"/>
<path d="M7058 7973 c7 -3 16 -2 19 1 4 3 -2 6 -13 5 -11 0 -14 -3 -6 -6z"/>
<path d="M7115 7960 c-3 -5 -1 -10 4 -10 6 0 11 5 11 10 0 6 -2 10 -4 10 -3 0
-8 -4 -11 -10z"/>
<path d="M6980 7946 c-93 -35 -251 -117 -288 -151 -38 -33 -47 -36 -43 -12 0
4 -3 7 -8 7 -15 0 -5 35 10 36 24 1 30 -7 17 -24 -10 -14 -10 -15 2 -5 25 23
19 48 -12 48 -22 0 -29 -6 -33 -27 -4 -15 -3 -33 2 -40 4 -7 8 -17 8 -23 0 -5
10 -14 23 -20 12 -5 20 -16 17 -23 -3 -7 0 -10 5 -7 6 3 10 -1 10 -9 0 -8 5
-18 12 -22 7 -4 8 -3 4 4 -4 7 -2 12 3 12 6 0 11 -5 11 -11 0 -5 6 -7 12 -3 7
5 21 9 31 9 10 1 22 7 27 14 5 9 10 10 14 2 4 -6 17 -11 29 -11 19 -1 20 -2 5
-10 -9 -6 -31 -12 -50 -14 -23 -2 -34 -9 -35 -22 -3 -17 -2 -17 6 1 7 15 10
16 10 4 1 -14 8 -15 44 -9 42 8 68 -1 66 -24 0 -7 -2 -6 -6 2 -3 7 -20 11 -41
11 -27 -1 -30 -3 -12 -6 31 -5 50 -28 51 -62 1 -24 2 -24 8 4 l7 30 8 -39 c9
-45 36 -106 48 -106 4 0 10 10 13 23 7 28 1 147 -9 170 -7 15 0 17 78 17 70 0
86 -3 86 -15 0 -8 4 -15 9 -15 14 0 23 32 12 43 -15 15 -89 26 -173 27 -42 0
-80 5 -83 10 -3 6 -16 10 -28 10 l-21 0 22 16 c12 8 57 33 100 54 81 41 162
60 248 60 29 0 56 5 60 12 4 6 3 8 -4 4 -14 -8 -65 12 -57 23 3 5 1 12 -5 16
-6 4 -8 10 -5 15 3 4 -4 10 -15 13 -26 7 -26 -5 1 -21 12 -7 19 -15 16 -18 -2
-2 -28 11 -57 31 -56 38 -90 43 -150 21z m-250 -216 c8 -5 11 -10 5 -10 -5 0
-17 5 -25 10 -8 5 -10 10 -5 10 6 0 17 -5 25 -10z"/>
<path d="M7370 7951 c0 -6 4 -13 10 -16 6 -3 7 1 4 9 -7 18 -14 21 -14 7z"/>
<path d="M7490 7950 c-9 -6 -10 -10 -3 -10 6 0 15 5 18 10 8 12 4 12 -15 0z"/>
<path d="M6814 7930 c0 -10 2 -17 5 -15 2 3 11 -1 19 -8 11 -9 11 -4 -2 16
-22 32 -22 32 -22 7z"/>
<path d="M6700 7930 c0 -5 5 -10 11 -10 5 0 7 5 4 10 -3 6 -8 10 -11 10 -2 0
-4 -4 -4 -10z"/>
<path d="M7441 7937 c2 -1 11 -8 21 -15 12 -10 18 -10 24 -1 4 7 3 9 -4 5 -6
-3 -13 -2 -17 4 -3 5 -11 10 -17 10 -6 0 -9 -1 -7 -3z"/>
<path d="M6661 7914 c0 -11 3 -14 6 -6 3 7 2 16 -1 19 -3 4 -6 -2 -5 -13z"/>
<path d="M6860 7918 c0 -11 12 -10 30 2 12 7 10 9 -8 7 -12 0 -22 -5 -22 -9z"/>
<path d="M7226 7893 c-6 -14 -5 -15 5 -6 7 7 10 15 7 18 -3 3 -9 -2 -12 -12z"/>
<path d="M6646 7873 c-6 -14 -5 -15 5 -6 7 7 10 15 7 18 -3 3 -9 -2 -12 -12z"/>
<path d="M7336 7867 c3 -10 9 -15 12 -12 3 3 0 11 -7 18 -10 9 -11 8 -5 -6z"/>
<path d="M7590 7870 c8 -5 20 -10 25 -10 6 0 3 5 -5 10 -8 5 -19 10 -25 10 -5
0 -3 -5 5 -10z"/>
<path d="M6726 7853 c-3 -8 -11 -11 -17 -7 -8 4 -9 3 -5 -4 5 -9 14 -7 32 4
28 19 29 21 9 21 -8 0 -17 -7 -19 -14z"/>
<path d="M7589 7833 c-13 -16 -12 -17 4 -4 9 7 17 15 17 17 0 8 -8 3 -21 -13z"/>
<path d="M7340 7826 c0 -7 9 -16 20 -19 11 -3 20 -4 20 -3 0 1 -9 9 -20 19
-15 13 -20 14 -20 3z"/>
<path d="M7080 7826 c0 -2 11 -6 25 -8 14 -3 25 -1 25 3 0 5 -11 9 -25 9 -14
0 -25 -2 -25 -4z"/>
<path d="M7508 7813 c7 -3 16 -2 19 1 4 3 -2 6 -13 5 -11 0 -14 -3 -6 -6z"/>
<path d="M7172 7798 c-19 -19 -15 -25 18 -30 34 -5 41 7 9 15 -12 3 -18 10
-14 16 8 15 2 14 -13 -1z"/>
<path d="M7130 7790 c-8 -5 -11 -12 -7 -16 4 -4 13 -2 19 4 15 15 7 24 -12 12z"/>
<path d="M7230 7779 c0 -5 5 -7 10 -4 6 3 10 8 10 11 0 2 -4 4 -10 4 -5 0 -10
-5 -10 -11z"/>
<path d="M7620 7785 c0 -5 5 -17 10 -25 5 -8 10 -10 10 -5 0 6 -5 17 -10 25
-5 8 -10 11 -10 5z"/>
<path d="M6926 7765 c-11 -8 -16 -15 -10 -15 5 0 18 7 28 15 11 8 16 15 10 15
-5 0 -18 -7 -28 -15z"/>
<path d="M7185 7749 c-4 -6 -5 -12 -2 -15 2 -3 7 2 10 11 7 17 1 20 -8 4z"/>
<path d="M6875 7741 c-3 -6 3 -9 14 -8 11 0 17 5 15 9 -7 11 -22 10 -29 -1z"/>
<path d="M7470 7742 c0 -15 28 -23 36 -9 4 7 4 9 -1 5 -4 -4 -14 -3 -22 3 -8
7 -13 8 -13 1z"/>
<path d="M7140 7734 c0 -17 27 -37 42 -31 8 4 7 6 -4 6 -9 1 -22 9 -27 19 -6
9 -11 12 -11 6z"/>
<path d="M7034 7719 c-8 -14 57 -15 67 -2 9 11 5 13 -26 11 -20 -2 -39 -6 -41
-9z"/>
<path d="M7273 7702 c-14 -19 -18 -34 -13 -43 8 -11 11 -12 22 -1 7 8 9 13 3
12 -22 -5 -27 1 -15 15 7 8 17 12 23 8 6 -4 7 -1 2 7 -4 7 -2 16 6 21 8 5 9 9
3 9 -5 0 -20 -13 -31 -28z"/>
<path d="M7354 7708 c0 -10 3 -18 7 -18 4 0 9 8 11 18 3 10 0 19 -6 19 -7 0
-12 -9 -12 -19z"/>
<path d="M6898 7713 c6 -2 18 -2 25 0 6 3 1 5 -13 5 -14 0 -19 -2 -12 -5z"/>
<path d="M7115 7711 c-3 -5 -2 -12 3 -15 5 -3 9 1 9 9 0 17 -3 19 -12 6z"/>
<path d="M7398 7713 c6 -2 9 -10 6 -15 -4 -7 -2 -8 5 -4 13 9 5 26 -12 25 -9
0 -8 -2 1 -6z"/>
<path d="M7483 7695 c-3 -9 -3 -18 -1 -21 3 -3 8 4 11 16 6 23 -1 27 -10 5z"/>
<path d="M7543 7689 c-2 -23 3 -25 10 -4 4 8 3 16 -1 19 -4 3 -9 -4 -9 -15z"/>
<path d="M7446 7677 c3 -10 9 -15 12 -12 3 3 0 11 -7 18 -10 9 -11 8 -5 -6z"/>
<path d="M7638 7668 c-2 -14 -10 -22 -18 -20 -11 2 -11 -1 2 -11 10 -8 15 -17
11 -20 -3 -4 -2 -7 4 -7 5 0 10 18 11 40 2 43 -4 54 -10 18z"/>
<path d="M7190 7650 c0 -5 5 -10 11 -10 5 0 7 5 4 10 -3 6 -8 10 -11 10 -2 0
-4 -4 -4 -10z"/>
<path d="M7362 7635 c12 -27 23 -31 33 -15 4 6 1 9 -6 8 -6 -2 -14 3 -17 11
-3 9 0 11 8 6 9 -5 11 -4 6 3 -4 7 -14 12 -21 12 -12 0 -12 -5 -3 -25z"/>
<path d="M7279 7638 c-8 -27 -5 -35 12 -31 11 3 21 9 24 13 3 5 -5 6 -17 2
-14 -3 -19 -2 -14 6 4 7 5 12 2 12 -3 0 -6 -1 -7 -2z"/>
<path d="M7512 7631 c-11 -7 -11 -9 1 -14 16 -6 27 0 27 15 0 10 -11 10 -28
-1z"/>
<path d="M7440 7621 c0 -10 19 -25 25 -20 1 2 -3 10 -11 17 -8 7 -14 8 -14 3z"/>
<path d="M7588 7623 c7 -3 16 -2 19 1 4 3 -2 6 -13 5 -11 0 -14 -3 -6 -6z"/>
<path d="M6702 7590 c0 -14 2 -19 5 -12 2 6 2 18 0 25 -3 6 -5 1 -5 -13z"/>
<path d="M7287 7593 c-11 -11 -8 -20 7 -20 8 0 12 6 9 14 -6 15 -7 15 -16 6z"/>
<path d="M7099 7549 c-25 -50 -79 -102 -131 -125 -41 -18 -53 -40 -16 -28 29
9 76 42 104 74 25 27 79 120 70 120 -3 0 -15 -19 -27 -41z"/>
<path d="M7608 7583 c7 -3 16 -2 19 1 4 3 -2 6 -13 5 -11 0 -14 -3 -6 -6z"/>
<path d="M7366 7558 c3 -4 9 -8 15 -8 5 0 9 4 9 8 0 5 -7 9 -15 9 -8 0 -12 -4
-9 -9z"/>
<path d="M7296 7548 c3 -5 10 -6 15 -3 13 9 11 12 -6 12 -8 0 -12 -4 -9 -9z"/>
<path d="M7403 7542 c2 -12 6 -24 10 -28 3 -4 4 4 2 16 -6 30 -16 40 -12 12z"/>
<path d="M7233 7535 c0 -8 4 -12 9 -9 5 3 6 10 3 15 -9 13 -12 11 -12 -6z"/>
<path d="M7455 7539 c-4 -6 -5 -12 -2 -15 2 -3 7 2 10 11 7 17 1 20 -8 4z"/>
<path d="M7600 7540 c0 -6 7 -10 15 -10 8 0 15 2 15 4 0 2 -7 6 -15 10 -8 3
-15 1 -15 -4z"/>
<path d="M7496 7523 c-4 -9 -3 -20 1 -24 4 -4 9 3 9 17 2 28 -1 31 -10 7z"/>
<path d="M7570 7530 c-9 -6 -10 -10 -3 -10 6 0 15 5 18 10 8 12 4 12 -15 0z"/>
<path d="M7437 7496 c-4 -10 -1 -13 8 -9 8 3 12 9 9 14 -7 12 -11 11 -17 -5z"/>
<path d="M7641 7494 c0 -11 3 -14 6 -6 3 7 2 16 -1 19 -3 4 -6 -2 -5 -13z"/>
<path d="M7510 7459 c0 -5 5 -7 10 -4 6 3 10 8 10 11 0 2 -4 4 -10 4 -5 0 -10
-5 -10 -11z"/>
<path d="M7250 7450 c-9 -6 -10 -10 -3 -10 6 0 15 5 18 10 8 12 4 12 -15 0z"/>
<path d="M7200 7421 c0 -7 -5 -9 -12 -5 -7 5 -8 3 -3 -5 5 -9 10 -10 18 -2 6
6 8 14 4 18 -4 3 -7 1 -7 -6z"/>
<path d="M6886 7393 c-6 -14 -5 -15 5 -6 7 7 10 15 7 18 -3 3 -9 -2 -12 -12z"/>
<path d="M6572 7340 c-13 -16 -18 -30 -12 -30 5 0 10 5 10 11 0 5 6 7 13 3 6
-4 9 -4 5 1 -4 4 -3 16 3 26 15 28 6 23 -19 -11z"/>
<path d="M6720 7291 c0 -6 4 -13 10 -16 6 -3 7 1 4 9 -7 18 -14 21 -14 7z"/>
<path d="M7195 7290 c-3 -5 -1 -10 4 -10 6 0 11 5 11 10 0 6 -2 10 -4 10 -3 0
-8 -4 -11 -10z"/>
<path d="M7560 7296 c0 -2 7 -7 16 -10 8 -3 12 -2 9 4 -6 10 -25 14 -25 6z"/>
<path d="M6499 7233 c-13 -16 -12 -17 4 -4 9 7 17 15 17 17 0 8 -8 3 -21 -13z"/>
<path d="M7432 7226 c7 -8 15 -12 17 -11 5 6 -10 25 -20 25 -5 0 -4 -6 3 -14z"/>
<path d="M6555 7170 c3 -5 8 -10 11 -10 2 0 4 5 4 10 0 6 -5 10 -11 10 -5 0
-7 -4 -4 -10z"/>
<path d="M6426 7162 c-3 -5 1 -9 9 -9 8 0 15 4 15 9 0 4 -4 8 -9 8 -6 0 -12
-4 -15 -8z"/>
<path d="M6590 7145 c0 -8 2 -15 4 -15 2 0 6 7 10 15 3 8 1 15 -4 15 -6 0 -10
-7 -10 -15z"/>
<path d="M6390 7125 c-7 -9 -11 -17 -9 -20 3 -2 10 5 17 15 14 24 10 26 -8 5z"/>
<path d="M6666 7114 c-4 -10 -4 -15 0 -11 4 4 13 2 20 -4 8 -7 14 -6 20 2 4 7
3 9 -4 5 -6 -3 -15 1 -20 10 -8 15 -10 14 -16 -2z"/>
<path d="M6748 7123 c7 -3 16 -2 19 1 4 3 -2 6 -13 5 -11 0 -14 -3 -6 -6z"/>
<path d="M7246 7118 c3 -5 10 -6 15 -3 13 9 11 12 -6 12 -8 0 -12 -4 -9 -9z"/>
<path d="M7420 7126 c0 -2 8 -10 18 -17 15 -13 16 -12 3 4 -13 16 -21 21 -21
13z"/>
<path d="M6489 7093 c-13 -17 -13 -17 6 -3 11 8 22 16 24 17 2 2 0 3 -6 3 -6
0 -17 -8 -24 -17z"/>
<path d="M6557 7096 c-4 -10 -1 -13 8 -9 8 3 12 9 9 14 -7 12 -11 11 -17 -5z"/>
<path d="M6629 7093 c-13 -16 -12 -17 4 -4 9 7 17 15 17 17 0 8 -8 3 -21 -13z"/>
<path d="M6746 7102 c-2 -4 4 -8 14 -8 10 0 16 4 14 8 -3 4 -9 8 -14 8 -5 0
-11 -4 -14 -8z"/>
<path d="M6858 7098 c5 -5 16 -8 23 -6 8 3 3 7 -10 11 -17 4 -21 3 -13 -5z"/>
<path d="M6655 7080 c3 -5 8 -10 11 -10 2 0 4 5 4 10 0 6 -5 10 -11 10 -5 0
-7 -4 -4 -10z"/>
<path d="M7240 7086 c0 -2 7 -7 16 -10 8 -3 12 -2 9 4 -6 10 -25 14 -25 6z"/>
<path d="M6433 7063 c0 -8 6 -9 19 -2 10 5 18 11 18 12 0 2 -8 3 -18 3 -10 0
-19 -6 -19 -13z"/>
<path d="M6677 7060 c-3 -11 -1 -20 4 -20 5 0 9 9 9 20 0 11 -2 20 -4 20 -2 0
-6 -9 -9 -20z"/>
<path d="M6635 7059 c-4 -6 -5 -12 -2 -15 2 -3 7 2 10 11 7 17 1 20 -8 4z"/>
<path d="M6849 7043 c-13 -16 -12 -17 4 -4 9 7 17 15 17 17 0 8 -8 3 -21 -13z"/>
<path d="M6517 7039 c7 -7 15 -10 18 -7 3 3 -2 9 -12 12 -14 6 -15 5 -6 -5z"/>
<path d="M6430 7036 c0 -2 8 -10 18 -17 15 -13 16 -12 3 4 -13 16 -21 21 -21
13z"/>
<path d="M6510 7012 c0 -12 122 -46 141 -40 8 3 -3 12 -25 22 -51 21 -116 32
-116 18z"/>
<path d="M7387 6999 c7 -7 15 -10 18 -7 3 3 -2 9 -12 12 -14 6 -15 5 -6 -5z"/>
<path d="M7620 6982 c-13 -14 -12 -15 5 -8 18 7 18 6 0 -14 -10 -11 -13 -20
-7 -20 7 0 12 -8 13 -17 0 -11 5 -7 11 10 6 17 7 36 2 47 -8 17 -10 17 -24 2z"/>
<path d="M6730 6980 c-8 -5 -10 -10 -5 -10 6 0 17 5 25 10 8 5 11 10 5 10 -5
0 -17 -5 -25 -10z"/>
<path d="M6548 6973 c7 -3 16 -2 19 1 4 3 -2 6 -13 5 -11 0 -14 -3 -6 -6z"/>
<path d="M6585 6960 c-7 -11 -8 -11 25 -15 14 -1 32 2 40 7 12 8 11 8 -3 4
-10 -3 -27 -1 -37 4 -13 7 -21 7 -25 0z"/>
<path d="M7580 6911 c0 -6 4 -13 10 -16 6 -3 7 1 4 9 -7 18 -14 21 -14 7z"/>
<path d="M7520 6880 c0 -5 5 -10 11 -10 5 0 7 5 4 10 -3 6 -8 10 -11 10 -2 0
-4 -4 -4 -10z"/>
<path d="M7581 6867 c2 -1 13 -9 24 -17 19 -14 19 -14 6 3 -7 9 -18 17 -24 17
-6 0 -8 -1 -6 -3z"/>
<path d="M7127 6840 c10 -11 19 -20 21 -20 1 0 -2 9 -8 20 -6 11 -15 20 -20
20 -6 0 -2 -9 7 -20z"/>
<path d="M7571 6833 c-7 -8 -11 -16 -8 -19 2 -2 10 2 17 11 17 20 9 27 -9 8z"/>
<path d="M7573 6795 c-10 -10 -9 -14 3 -19 10 -4 13 -2 8 6 -5 8 -2 9 9 5 10
-3 17 -2 17 2 0 15 -25 19 -37 6z"/>
<path d="M6755 6760 c-3 -6 1 -7 9 -4 18 7 21 14 7 14 -6 0 -13 -4 -16 -10z"/>
<path d="M7473 6755 c0 -8 4 -12 9 -9 5 3 6 10 3 15 -9 13 -12 11 -12 -6z"/>
<path d="M7590 6751 c-7 -15 -7 -21 0 -21 12 0 25 28 17 36 -3 3 -10 -4 -17
-15z"/>
<path d="M7200 6749 c0 -5 5 -7 10 -4 6 3 10 8 10 11 0 2 -4 4 -10 4 -5 0 -10
-5 -10 -11z"/>
<path d="M7500 6739 c0 -5 5 -7 10 -4 6 3 10 8 10 11 0 2 -4 4 -10 4 -5 0 -10
-5 -10 -11z"/>
<path d="M6590 6727 c0 -9 4 -18 9 -21 5 -4 8 1 7 9 -3 21 -16 31 -16 12z"/>
<path d="M7510 6710 c-8 -5 -10 -10 -5 -10 6 0 17 5 25 10 8 5 11 10 5 10 -5
0 -17 -5 -25 -10z"/>
<path d="M6620 6699 c0 -5 5 -9 10 -9 6 0 12 0 15 0 14 0 8 13 -7 16 -10 1
-18 -2 -18 -7z"/>
<path d="M6686 6701 c-3 -5 4 -11 16 -14 29 -8 32 -4 8 11 -10 6 -21 8 -24 3z"/>
<path d="M7426 6692 c-3 -5 1 -9 9 -9 8 0 12 4 9 9 -3 4 -7 8 -9 8 -2 0 -6 -4
-9 -8z"/>
<path d="M7520 6660 c0 -11 4 -20 8 -20 4 0 8 9 8 20 0 11 -4 20 -8 20 -4 0
-8 -9 -8 -20z"/>
<path d="M7235 6660 c3 -5 8 -10 11 -10 2 0 4 5 4 10 0 6 -5 10 -11 10 -5 0
-7 -4 -4 -10z"/>
<path d="M7017 6643 c3 -7 6 -13 8 -13 2 0 5 6 8 13 3 8 -1 14 -8 14 -7 0 -11
-6 -8 -14z"/>
<path d="M7556 6647 c3 -10 9 -15 12 -12 3 3 0 11 -7 18 -10 9 -11 8 -5 -6z"/>
<path d="M7160 6640 c-9 -6 -10 -10 -3 -10 6 0 15 5 18 10 8 12 4 12 -15 0z"/>
<path d="M7477 6629 c-4 -16 -3 -18 9 -8 7 6 11 15 8 20 -8 13 -11 11 -17 -12z"/>
<path d="M6670 6601 c0 -18 4 -30 9 -26 6 3 8 15 6 27 -7 34 -15 34 -15 -1z"/>
<path d="M6925 6620 c-3 -6 1 -7 9 -4 18 7 21 14 7 14 -6 0 -13 -4 -16 -10z"/>
<path d="M6735 6610 c-3 -6 1 -7 9 -4 18 7 21 14 7 14 -6 0 -13 -4 -16 -10z"/>
<path d="M7524 6609 c-4 -8 -3 -9 4 -5 7 4 12 2 12 -3 0 -6 5 -11 11 -11 13 0
7 22 -8 27 -6 2 -15 -1 -19 -8z"/>
<path d="M6770 6600 c0 -5 7 -7 15 -4 8 4 15 8 15 10 0 2 -7 4 -15 4 -8 0 -15
-4 -15 -10z"/>
<path d="M7501 6594 c0 -11 3 -14 6 -6 3 7 2 16 -1 19 -3 4 -6 -2 -5 -13z"/>
<path d="M7470 6594 c1 -12 39 -61 40 -51 0 5 -9 20 -20 34 -11 14 -20 22 -20
17z"/>
<path d="M7523 6566 c0 -11 1 -15 4 -8 3 6 9 10 14 6 5 -3 9 -1 9 4 0 21 -26
19 -27 -2z"/>
<path d="M7441 6547 c-8 -10 -7 -14 4 -14 8 0 15 6 15 14 0 7 -2 13 -4 13 -2
0 -9 -6 -15 -13z"/>
<path d="M6955 6520 c-3 -6 1 -7 9 -4 18 7 21 14 7 14 -6 0 -13 -4 -16 -10z"/>
<path d="M7025 6520 c-3 -5 1 -10 10 -10 9 0 13 5 10 10 -3 6 -8 10 -10 10 -2
0 -7 -4 -10 -10z"/>
<path d="M7413 6515 c0 -18 33 -20 43 -3 5 7 2 9 -8 5 -9 -3 -20 -1 -25 4 -6
6 -10 4 -10 -6z"/>
<path d="M7470 6520 c0 -6 7 -10 15 -10 8 0 15 2 15 4 0 2 -7 6 -15 10 -8 3
-15 1 -15 -4z"/>
<path d="M7138 6513 c7 -3 16 -2 19 1 4 3 -2 6 -13 5 -11 0 -14 -3 -6 -6z"/>
<path d="M6717 6499 c7 -7 15 -10 18 -7 3 3 -2 9 -12 12 -14 6 -15 5 -6 -5z"/>
<path d="M6850 6500 c0 -5 5 -10 11 -10 5 0 7 5 4 10 -3 6 -8 10 -11 10 -2 0
-4 -4 -4 -10z"/>
<path d="M7422 6464 c-1 -13 0 -24 2 -24 7 0 14 40 7 44 -4 3 -8 -6 -9 -20z"/>
<path d="M7336 6447 c3 -10 9 -15 12 -12 3 3 0 11 -7 18 -10 9 -11 8 -5 -6z"/>
<path d="M7056 6441 c-4 -6 -1 -11 6 -11 9 0 9 -3 -2 -10 -9 -6 -10 -10 -3
-10 17 0 23 14 14 29 -6 9 -11 10 -15 2z"/>
<path d="M7392 6434 c-7 -8 -8 -14 -3 -14 10 0 25 19 20 25 -2 1 -10 -3 -17
-11z"/>
<path d="M6955 6399 c-4 -6 -5 -12 -2 -15 2 -3 7 2 10 11 7 17 1 20 -8 4z"/>
<path d="M7020 6406 c0 -2 8 -10 18 -17 15 -13 16 -12 3 4 -13 16 -21 21 -21
13z"/>
<path d="M6930 6333 c0 -19 21 -27 33 -13 9 10 9 11 -2 5 -8 -4 -17 -2 -22 6
-6 9 -9 10 -9 2z"/>
<path d="M7038 6333 c7 -3 16 -2 19 1 4 3 -2 6 -13 5 -11 0 -14 -3 -6 -6z"/>
<path d="M6790 6300 c-13 -8 -12 -10 3 -10 9 0 17 5 17 10 0 12 -1 12 -20 0z"/>
<path d="M1262 7828 c2 -13 8 -23 13 -23 6 0 11 10 13 23 2 15 -2 22 -13 22
-11 0 -15 -7 -13 -22z"/>
<path d="M1254 7749 c-8 -14 5 -29 26 -29 17 0 38 29 22 31 -4 0 -15 2 -24 4
-10 2 -20 -1 -24 -6z"/>
<path d="M1822 7808 c-18 -18 -15 -28 7 -28 26 0 34 15 18 29 -10 8 -17 7 -25
-1z"/>
<path d="M8349 7578 c-126 -44 -222 -143 -272 -276 -31 -82 -30 -225 2 -304
28 -72 107 -160 175 -196 44 -23 63 -27 141 -27 80 0 97 3 156 31 139 66 222
181 249 343 13 72 -3 178 -37 249 -75 159 -252 236 -414 180z m140 -269 c17
-6 31 -14 31 -18 0 -13 -33 -38 -60 -46 -88 -26 -92 -129 -6 -151 23 -5 41
-38 30 -56 -7 -12 -102 -10 -125 2 -45 25 -65 130 -35 188 19 37 58 71 92 82
39 11 37 11 73 -1z m86 -156 c-8 -56 -46 -103 -68 -85 -28 23 -25 51 10 124
l36 73 14 -34 c10 -23 12 -50 8 -78z"/>
<path d="M2574 7246 c-9 -23 0 -51 16 -51 10 0 15 10 15 29 0 32 -21 47 -31
22z"/>
<path d="M1900 7265 c0 -8 9 -15 20 -15 11 0 20 7 20 15 0 8 -9 15 -20 15 -11
0 -20 -7 -20 -15z"/>
<path d="M2157 7256 c-8 -21 3 -56 18 -56 17 0 27 28 20 51 -7 22 -31 25 -38
5z"/>
<path d="M2330 7255 c-11 -13 -8 -15 13 -15 19 0 25 4 21 15 -4 8 -10 15 -14
15 -4 0 -13 -7 -20 -15z"/>
<path d="M2885 6320 c-7 -12 2 -30 16 -30 12 0 12 27 0 35 -5 3 -12 1 -16 -5z"/>
<path d="M2880 6234 c0 -9 7 -14 17 -12 25 5 28 28 4 28 -12 0 -21 -6 -21 -16z"/>
<path d="M2157 6263 c-12 -11 -8 -23 8 -23 8 0 15 7 15 15 0 16 -12 20 -23 8z"/>
<path d="M7360 6280 c-8 -5 -10 -10 -5 -10 6 0 17 5 25 10 8 5 11 10 5 10 -5
0 -17 -5 -25 -10z"/>
<path d="M7225 6240 c-13 -6 -15 -9 -5 -9 8 0 22 4 30 9 18 12 2 12 -25 0z"/>
<path d="M7270 6240 c0 -6 7 -10 15 -10 8 0 15 2 15 4 0 2 -7 6 -15 10 -8 3
-15 1 -15 -4z"/>
<path d="M7175 6220 c3 -5 10 -10 16 -10 5 0 9 5 9 10 0 6 -7 10 -16 10 -8 0
-12 -4 -9 -10z"/>
<path d="M7140 6210 c8 -5 20 -10 25 -10 6 0 3 5 -5 10 -8 5 -19 10 -25 10 -5
0 -3 -5 5 -10z"/>
<path d="M7080 6206 c0 -2 8 -10 18 -17 15 -13 16 -12 3 4 -13 16 -21 21 -21
13z"/>
<path d="M7045 6190 c3 -5 8 -10 11 -10 2 0 4 5 4 10 0 6 -5 10 -11 10 -5 0
-7 -4 -4 -10z"/>
<path d="M6875 6160 c4 -6 11 -8 16 -5 14 9 11 15 -7 15 -8 0 -12 -5 -9 -10z"/>
<path d="M7055 6140 c6 -9 -19 -20 -46 -20 -10 0 -19 -4 -19 -9 0 -9 28 -4 79
16 24 10 24 10 3 15 -12 4 -20 3 -17 -2z"/>
<path d="M6950 6107 c0 -10 8 -17 18 -17 9 0 13 4 7 8 -5 4 -13 11 -17 16 -5
5 -8 2 -8 -7z"/>
<path d="M6863 6093 c9 -2 25 -2 35 0 9 3 1 5 -18 5 -19 0 -27 -2 -17 -5z"/>
<path d="M8070 6062 c0 -6 -7 -9 -15 -6 -11 5 -13 2 -9 -11 6 -15 8 -15 22 -1
9 9 13 19 9 22 -4 4 -7 2 -7 -4z"/>
<path d="M8026 6028 c5 -7 2 -9 -8 -5 -17 6 -58 -30 -58 -51 0 -7 -7 -12 -15
-12 -15 0 -38 -34 -29 -43 11 -11 -8 -48 -22 -43 -8 3 -19 -4 -25 -17 -7 -12
-8 -19 -4 -15 4 4 14 0 22 -10 13 -16 14 -15 10 6 -3 12 -1 22 4 22 5 0 9 -8
10 -17 0 -10 9 -1 20 22 11 22 18 33 15 25 -2 -11 4 -16 17 -18 17 -1 19 1 7
8 -13 9 -13 11 0 20 13 10 13 11 0 9 -29 -3 -40 1 -40 16 0 9 6 12 15 9 8 -4
17 1 21 10 5 14 9 14 23 4 13 -11 13 -10 -1 8 -16 19 -16 20 4 33 11 7 23 9
27 4 9 -12 31 -15 31 -3 0 6 5 10 11 10 6 0 9 -7 6 -14 -4 -10 -1 -13 8 -10
16 6 16 25 0 36 -6 5 -5 8 3 8 7 0 10 5 7 11 -5 7 -14 3 -26 -10 -11 -12 -25
-21 -32 -21 -7 1 -5 6 5 14 17 12 15 26 -4 26 -5 0 -6 -5 -2 -12z m-16 -12 c0
-2 -8 -10 -17 -17 -16 -13 -17 -12 -4 4 13 16 21 21 21 13z"/>
<path d="M8033 5963 c4 -3 2 -12 -5 -20 -6 -8 -7 -13 -2 -12 31 6 46 -2 41
-21 -3 -11 -1 -20 3 -20 16 0 22 21 11 34 -6 7 -8 16 -4 20 4 4 0 4 -10 0 -12
-4 -17 -1 -17 10 0 9 -5 16 -12 16 -6 0 -8 -3 -5 -7z"/>
<path d="M7980 5920 c19 -13 30 -13 30 0 0 6 -10 10 -22 10 -19 0 -20 -2 -8
-10z"/>
<path d="M7876 5901 c-16 -17 -15 -18 9 -14 25 5 32 17 16 27 -4 3 -16 -3 -25
-13z"/>
<path d="M7999 5888 c-1 -7 -1 -22 0 -33 1 -12 -1 -16 -6 -9 -14 19 -41 23
-53 9 -10 -12 -7 -14 16 -12 15 1 29 -4 32 -11 3 -11 0 -12 -16 -3 -14 7 -23
8 -27 1 -3 -5 -4 -11 -1 -11 3 -1 11 -3 16 -4 6 -1 13 -3 18 -4 4 -1 0 -6 -8
-11 -18 -12 -2 -12 25 0 11 5 14 9 7 9 -10 1 -10 6 -2 22 7 11 9 27 6 34 -3 8
0 15 7 18 8 2 8 5 -1 11 -7 4 -12 2 -13 -6z"/>
<path d="M8045 5853 c1 -10 -2 -29 -7 -43 -6 -17 -6 -22 1 -15 6 6 12 19 14
30 1 11 6 26 10 33 5 7 3 12 -7 12 -8 0 -13 -8 -11 -17z"/>
<path d="M7579 5845 c5 -11 17 -29 25 -40 13 -16 15 -17 10 -2 -5 13 -2 16 12
14 36 -7 54 -19 54 -36 0 -13 2 -13 9 -2 5 8 16 11 24 8 11 -4 14 -1 10 9 -3
8 -11 13 -17 11 -6 -2 -23 2 -38 10 -16 7 -28 10 -28 7 0 -4 -10 1 -22 12 -12
10 -18 13 -14 7 11 -19 -5 -16 -21 5 -13 16 -13 15 -4 -3z"/>
<path d="M7825 5830 c6 -10 4 -12 -9 -7 -10 4 -15 3 -11 -3 4 -6 18 -8 32 -6
27 5 44 16 25 16 -5 0 -18 3 -28 7 -13 5 -15 3 -9 -7z"/>
<path d="M7780 5812 c0 -6 -6 -9 -14 -6 -8 3 -19 -4 -26 -16 -8 -14 -17 -19
-28 -15 -9 3 -13 3 -9 -1 4 -4 2 -13 -5 -21 -8 -10 -8 -17 1 -26 10 -9 11 -8
6 4 -4 10 0 19 10 23 21 8 38 -2 29 -16 -4 -6 -2 -8 4 -4 6 3 17 -1 25 -9 9
-8 20 -15 26 -15 14 0 -20 34 -42 43 -9 3 -17 11 -17 17 0 6 4 9 9 5 5 -3 12
3 14 12 3 13 5 11 7 -7 2 -24 2 -24 11 4 4 17 6 32 4 35 -3 2 -5 -1 -5 -7z"/>
<path d="M7844 5798 c-4 -7 -3 -8 4 -4 7 4 12 3 12 -3 0 -5 8 -8 18 -7 9 2 17
7 17 11 0 13 -43 16 -51 3z"/>
<path d="M7936 5797 c3 -8 -7 -17 -23 -23 -26 -9 -25 -9 14 -10 42 -1 42 -1
26 22 -17 26 -25 31 -17 11z"/>
<path d="M8004 5763 c1 -34 10 -35 19 -3 3 11 1 18 -3 15 -5 -3 -10 1 -13 7
-2 7 -4 -1 -3 -19z"/>
<path d="M7630 5772 c0 -14 37 -44 43 -35 3 4 -6 16 -19 26 -13 10 -24 14 -24
9z"/>
<path d="M7806 5771 c-3 -5 0 -11 7 -14 8 -3 14 1 14 9 0 16 -13 19 -21 5z"/>
<path d="M7850 5766 c0 -2 7 -7 16 -10 8 -3 12 -2 9 4 -6 10 -25 14 -25 6z"/>
<path d="M7846 5737 c3 -10 9 -15 12 -12 3 3 0 11 -7 18 -10 9 -11 8 -5 -6z"/>
<path d="M7950 5738 c0 -11 12 -10 30 2 12 7 10 9 -8 7 -12 0 -22 -5 -22 -9z"/>
<path d="M7895 5710 c3 -11 2 -20 -3 -20 -6 0 -12 5 -14 12 -3 7 -7 4 -12 -7
-4 -11 -4 -16 0 -13 10 10 46 -11 38 -23 -3 -5 0 -16 6 -24 10 -11 10 -15 1
-15 -7 0 -9 -5 -6 -10 4 -6 11 -8 16 -5 5 4 9 1 9 -4 0 -6 -4 -11 -9 -11 -5 0
-8 -12 -8 -27 l0 -27 14 29 c14 25 14 32 0 59 -9 20 -11 39 -6 53 5 15 3 23
-7 27 -9 3 -12 10 -9 16 3 5 1 10 -5 10 -7 0 -9 -8 -5 -20z"/>
<path d="M7680 5713 c0 -12 49 -73 50 -62 0 3 -11 20 -25 39 -14 19 -25 29
-25 23z"/>
<path d="M7950 5709 c0 -5 5 -7 10 -4 6 3 10 8 10 11 0 2 -4 4 -10 4 -5 0 -10
-5 -10 -11z"/>
<path d="M7833 5703 c-7 -2 -12 -14 -12 -26 1 -17 2 -18 6 -4 2 9 9 14 15 11
6 -4 8 -2 4 4 -3 5 0 13 6 15 7 3 9 5 3 5 -5 0 -16 -2 -22 -5z"/>
<path d="M7980 5695 c0 -8 -5 -15 -11 -15 -5 0 -7 -5 -3 -11 4 -8 -1 -9 -17
-4 -17 4 -20 3 -10 -3 8 -6 11 -17 8 -26 -14 -36 11 -13 31 29 12 25 17 45 12
45 -6 0 -10 -7 -10 -15z"/>
<path d="M7760 5660 c0 -5 5 -10 10 -10 6 0 10 5 10 10 0 6 -4 10 -10 10 -5 0
-10 -4 -10 -10z"/>
<path d="M7795 5660 c-3 -5 -1 -10 4 -10 6 0 11 5 11 10 0 6 -2 10 -4 10 -3 0
-8 -4 -11 -10z"/>
<path d="M7866 5647 c1 -12 3 -32 3 -43 1 -12 8 -25 17 -28 14 -5 15 -4 4 9
-7 8 -10 22 -6 30 3 8 1 15 -4 15 -5 0 -7 6 -4 14 3 8 1 16 -4 20 -5 3 -7 -5
-6 -17z"/>
<path d="M7730 5630 c0 -5 5 -10 10 -10 6 0 10 5 10 10 0 6 -4 10 -10 10 -5 0
-10 -4 -10 -10z"/>
<path d="M7805 5619 c-4 -6 -5 -12 -2 -15 2 -3 7 2 10 11 7 17 1 20 -8 4z"/>
<path d="M7826 5612 c-3 -5 1 -9 9 -9 8 0 12 4 9 9 -3 4 -7 8 -9 8 -2 0 -6 -4
-9 -8z"/>
<path d="M7753 5583 c9 -20 13 -23 15 -10 3 15 6 15 30 1 25 -15 25 -14 -3 10
-41 35 -59 35 -42 -1z"/>
<path d="M7832 5533 c-18 -13 -25 -13 -37 -3 -13 11 -14 10 -9 -3 10 -26 35
-29 55 -6 29 33 26 37 -9 12z"/>
<path d="M7895 5514 c-6 -8 -20 -16 -32 -17 -12 0 -19 -5 -17 -9 3 -5 10 -6
15 -3 5 4 9 -2 9 -12 0 -13 6 -9 21 15 12 18 20 35 17 37 -2 2 -8 -3 -13 -11z"/>
<path d="M7837 5443 c-4 -3 -7 -18 -7 -31 0 -32 11 -23 14 12 3 28 3 30 -7 19z"/>
<path d="M8250 5690 c0 -5 5 -10 10 -10 6 0 10 5 10 10 0 6 -4 10 -10 10 -5 0
-10 -4 -10 -10z"/>
<path d="M8100 5643 c-21 -43 -22 -43 -16 -43 3 0 11 11 19 25 l13 25 23 -21
c20 -19 22 -19 19 -4 -1 10 -12 24 -24 31 -19 13 -22 12 -34 -13z"/>
<path d="M8075 5581 c-3 -5 -2 -12 3 -15 5 -3 9 1 9 9 0 17 -3 19 -12 6z"/>
<path d="M8175 5569 c-4 -5 -19 -15 -33 -21 -18 -7 -22 -12 -13 -15 7 -3 25 6
39 21 15 14 24 26 20 26 -4 0 -10 -5 -13 -11z"/>
<path d="M8087 5535 c-4 -8 -15 -12 -26 -10 -15 3 -25 -8 -45 -51 -14 -30 -26
-57 -27 -62 0 -4 -8 -16 -17 -27 -12 -13 -7 -12 15 5 18 14 30 30 28 37 -2 7
2 10 11 6 9 -3 14 0 12 8 -2 8 2 13 8 12 6 -1 22 10 35 25 13 14 16 20 7 13
-12 -9 -18 -9 -18 -3 0 7 -7 9 -17 5 -15 -6 -16 -5 -3 9 8 9 19 14 23 11 9 -6
37 15 37 28 0 14 -17 10 -23 -6z m-17 -59 c0 -3 -4 -8 -10 -11 -5 -3 -10 -1
-10 4 0 6 5 11 10 11 6 0 10 -2 10 -4z"/>
<path d="M3510 5820 c0 -16 5 -30 10 -30 6 0 10 14 10 30 0 17 -4 30 -10 30
-5 0 -10 -13 -10 -30z"/>
<path d="M3306 5825 c-6 -17 2 -45 14 -45 12 0 20 28 14 45 -4 8 -10 15 -14
15 -4 0 -10 -7 -14 -15z"/>
<path d="M3027 5824 c-13 -13 -7 -24 14 -24 11 0 19 5 17 12 -5 14 -22 21 -31
12z"/>
<path d="M2730 5795 c0 -8 7 -15 15 -15 8 0 15 7 15 15 0 8 -7 15 -15 15 -8 0
-15 -7 -15 -15z"/>
<path d="M8335 3891 c-72 -20 -317 -134 -362 -168 -56 -41 -198 -165 -206
-180 -17 -28 3 -25 65 10 58 33 191 99 479 241 65 32 132 71 150 87 l34 28
-50 0 c-27 0 -77 -8 -110 -18z"/>
<path d="M2074 5756 c-9 -23 0 -51 16 -51 10 0 15 10 15 29 0 32 -21 47 -31
22z"/>
<path d="M2240 5765 c0 -10 7 -15 18 -13 21 4 19 22 -2 26 -10 2 -16 -3 -16
-13z"/>
<path d="M1814 5746 c-9 -24 0 -51 19 -54 15 -3 18 2 15 29 -3 35 -24 51 -34
25z"/>
<path d="M4434 4402 c-14 -9 -26 -42 -15 -42 9 0 41 33 41 43 0 9 -12 9 -26
-1z"/>
<path d="M4336 3981 c-4 -5 -2 -20 3 -33 9 -21 10 -21 10 10 1 32 -3 39 -13
23z"/>
<path d="M8385 10089 c-4 -6 -5 -12 -2 -15 2 -3 7 2 10 11 7 17 1 20 -8 4z"/>
<path d="M8266 10025 c4 -8 8 -15 10 -15 2 0 4 7 4 15 0 8 -4 15 -10 15 -5 0
-7 -7 -4 -15z"/>
<path d="M8252 9963 c-1 -29 3 -53 8 -53 4 0 7 16 5 35 -2 19 1 35 6 35 5 0 9
5 9 11 0 5 -4 8 -9 5 -5 -4 -11 0 -14 6 -2 7 -5 -11 -5 -39z"/>
<path d="M8295 9980 c-3 -5 1 -10 9 -10 9 0 16 5 16 10 0 6 -4 10 -9 10 -6 0
-13 -4 -16 -10z"/>
<path d="M8327 9973 c-4 -3 -7 -11 -7 -17 0 -6 5 -5 12 2 6 6 9 14 7 17 -3 3
-9 2 -12 -2z"/>
<path d="M8372 9961 c-11 -7 -11 -9 0 -14 9 -3 15 1 15 9 0 8 -1 14 -1 14 -1
0 -7 -4 -14 -9z"/>
<path d="M8285 9930 c-3 -5 -3 -10 2 -10 4 0 1 -5 -7 -10 -13 -8 -12 -11 5
-24 11 -8 22 -12 25 -10 2 3 0 8 -6 12 -7 4 -8 15 -3 27 6 17 8 17 8 3 1 -19
16 -24 26 -9 3 6 -3 15 -14 20 -24 13 -28 14 -36 1z"/>
<path d="M8390 9930 c-9 -6 -10 -10 -3 -10 6 0 15 5 18 10 8 12 4 12 -15 0z"/>
<path d="M8350 9889 c0 -5 5 -7 10 -4 6 3 10 8 10 11 0 2 -4 4 -10 4 -5 0 -10
-5 -10 -11z"/>
<path d="M8326 9877 c3 -10 9 -15 12 -12 3 3 0 11 -7 18 -10 9 -11 8 -5 -6z"/>
<path d="M8380 9881 c0 -9 30 -24 36 -18 2 1 -6 8 -16 15 -11 7 -20 8 -20 3z"/>
<path d="M8425 9880 c3 -5 11 -10 16 -10 6 0 7 5 4 10 -3 6 -11 10 -16 10 -6
0 -7 -4 -4 -10z"/>
<path d="M8299 9847 c6 -8 7 -18 3 -23 -4 -4 0 -3 10 4 11 9 18 10 23 2 11
-18 -3 -40 -24 -40 -23 0 -36 -16 -21 -25 5 -3 10 -1 10 4 0 17 38 13 48 -6 9
-15 11 -14 23 4 13 22 39 20 39 -3 0 -17 16 -18 26 -2 5 7 3 8 -5 4 -8 -6 -11
-2 -9 10 2 13 -3 19 -14 18 -10 -1 -18 1 -18 5 0 4 -6 8 -14 8 -8 0 -11 -8 -8
-20 3 -14 1 -18 -6 -13 -17 10 -15 32 5 64 17 26 17 26 0 13 -14 -11 -23 -12
-43 -2 -33 14 -39 14 -25 -2z"/>
<path d="M8434 9850 c-22 -9 -41 -40 -24 -40 6 0 10 7 10 15 0 9 9 15 25 15
14 0 25 5 25 10 0 12 -7 12 -36 0z"/>
<path d="M8626 9852 c-2 -4 -1 -14 4 -22 7 -11 9 -9 7 8 -1 24 -3 26 -11 14z"/>
<path d="M8385 9840 c-3 -5 -1 -10 4 -10 6 0 11 5 11 10 0 6 -2 10 -4 10 -3 0
-8 -4 -11 -10z"/>
<path d="M8431 9813 c0 -11 3 -13 6 -5 2 6 9 10 14 6 5 -3 9 0 9 5 0 6 -7 11
-15 11 -8 0 -15 -8 -14 -17z"/>
<path d="M8315 9810 c-3 -5 -1 -10 4 -10 6 0 11 5 11 10 0 6 -2 10 -4 10 -3 0
-8 -4 -11 -10z"/>
<path d="M8700 9759 c0 -6 -7 -8 -16 -5 -14 5 -15 4 -4 -9 17 -20 25 -19 27 5
1 11 0 20 -3 20 -2 0 -4 -5 -4 -11z"/>
<path d="M8507 9753 c-4 -3 -2 -14 3 -24 7 -12 7 -20 0 -24 -6 -4 -8 -11 -5
-16 3 -5 -1 -6 -9 -3 -18 7 -23 -21 -6 -31 6 -3 10 -1 10 4 0 6 6 11 14 11 8
0 18 5 21 10 4 6 3 9 -2 8 -4 -2 -8 2 -8 7 0 6 4 9 9 7 5 -2 4 4 -3 12 -7 8
-10 20 -7 25 7 11 -8 24 -17 14z"/>
<path d="M8560 9740 c0 -5 5 -10 11 -10 5 0 7 5 4 10 -3 6 -8 10 -11 10 -2 0
-4 -4 -4 -10z"/>
<path d="M8591 9730 c0 -22 26 -53 38 -46 6 4 20 2 31 -4 13 -7 20 -7 20 0 0
5 -6 10 -12 10 -9 0 -8 4 2 10 19 12 8 13 -24 0 -22 -8 -28 -6 -40 18 -9 15
-15 20 -15 12z"/>
<path d="M8800 9699 c0 -4 9 -9 20 -12 11 -3 20 -1 20 5 0 6 8 7 17 4 10 -4
14 -3 9 1 -9 9 -66 11 -66 2z"/>
<path d="M8575 9690 c-3 -5 -1 -10 4 -10 6 0 11 5 11 10 0 6 -2 10 -4 10 -3 0
-8 -4 -11 -10z"/>
<path d="M8767 9670 c-3 -11 -1 -20 4 -20 5 0 9 9 9 20 0 11 -2 20 -4 20 -2 0
-6 -9 -9 -20z"/>
<path d="M8845 9670 c-3 -6 1 -7 9 -4 18 7 21 14 7 14 -6 0 -13 -4 -16 -10z"/>
<path d="M8892 9664 c10 -10 20 -16 22 -13 3 3 -5 11 -17 18 -21 13 -21 12 -5
-5z"/>
<path d="M8650 9660 c0 -5 5 -10 11 -10 5 0 7 5 4 10 -3 6 -8 10 -11 10 -2 0
-4 -4 -4 -10z"/>
<path d="M8789 9643 c-12 -16 -12 -17 1 -7 8 6 22 14 30 17 13 5 12 6 -1 6 -9
1 -23 -7 -30 -16z"/>
<path d="M8755 9630 c3 -5 8 -10 11 -10 2 0 4 5 4 10 0 6 -5 10 -11 10 -5 0
-7 -4 -4 -10z"/>
<path d="M8815 9619 c7 -11 35 -12 35 -1 0 4 -9 8 -20 9 -11 1 -18 -2 -15 -8z"/>
<path d="M8917 9619 c7 -7 15 -10 18 -7 3 3 -2 9 -12 12 -14 6 -15 5 -6 -5z"/>
<path d="M8791 9604 c0 -11 3 -14 6 -6 3 7 2 16 -1 19 -3 4 -6 -2 -5 -13z"/>
<path d="M8954 9603 c2 -9 8 -18 15 -19 6 -1 7 0 1 3 -5 2 -8 9 -5 13 3 5 1
11 -4 14 -5 4 -8 -2 -7 -11z"/>
<path d="M8720 9589 c-7 -11 -9 -23 -6 -27 3 -3 6 1 6 9 0 17 39 -30 40 -48 0
-19 17 -16 24 4 4 10 4 14 0 11 -12 -12 -50 42 -46 65 4 14 -8 7 -18 -14z"/>
<path d="M8655 9580 c3 -5 8 -10 11 -10 2 0 4 5 4 10 0 6 -5 10 -11 10 -5 0
-7 -4 -4 -10z"/>
<path d="M8955 9549 c-4 -6 -5 -12 -2 -15 2 -3 7 2 10 11 7 17 1 20 -8 4z"/>
<path d="M9080 9550 c0 -5 5 -10 11 -10 5 0 7 5 4 10 -3 6 -8 10 -11 10 -2 0
-4 -4 -4 -10z"/>
<path d="M9297 9539 c7 -7 15 -10 18 -7 3 3 -2 9 -12 12 -14 6 -15 5 -6 -5z"/>
<path d="M8970 9525 c0 -8 7 -15 15 -15 9 0 12 6 9 15 -4 8 -10 15 -15 15 -5
0 -9 -7 -9 -15z"/>
<path d="M9018 9533 c10 -4 10 -8 0 -21 -12 -15 -11 -15 4 -4 22 17 52 2 72
-36 10 -18 15 -22 16 -10 0 9 -5 20 -11 23 -6 4 -8 14 -5 22 4 10 2 13 -8 10
-8 -3 -16 -1 -18 5 -2 6 -17 12 -33 13 -17 2 -24 1 -17 -2z"/>
<path d="M9148 9533 c7 -3 16 -2 19 1 4 3 -2 6 -13 5 -11 0 -14 -3 -6 -6z"/>
<path d="M10177 9499 c7 -7 15 -10 18 -7 3 3 -2 9 -12 12 -14 6 -15 5 -6 -5z"/>
<path d="M8925 9480 c-3 -5 -1 -10 4 -10 6 0 11 5 11 10 0 6 -2 10 -4 10 -3 0
-8 -4 -11 -10z"/>
<path d="M9032 9473 c6 -33 47 -62 84 -61 19 1 37 5 40 10 11 17 -7 26 -40 18
-19 -4 -40 -4 -47 1 -13 8 -5 13 14 10 5 -1 6 3 2 9 -3 6 -11 7 -17 4 -7 -5
-9 -2 -6 7 4 10 -1 15 -13 16 -13 1 -19 -4 -17 -14z"/>
<path d="M9125 9479 c-4 -6 -5 -12 -2 -15 2 -3 7 2 10 11 7 17 1 20 -8 4z"/>
<path d="M9160 9483 c0 -6 8 -17 18 -24 16 -13 16 -13 2 6 -8 11 -16 22 -17
24 -2 2 -3 0 -3 -6z"/>
<path d="M9190 9480 c0 -5 5 -10 10 -10 6 0 10 5 10 10 0 6 -4 10 -10 10 -5 0
-10 -4 -10 -10z"/>
<path d="M9270 9481 c0 -6 4 -13 10 -16 6 -3 7 1 4 9 -7 18 -14 21 -14 7z"/>
<path d="M9339 9468 c14 -19 32 -15 30 5 0 8 -2 8 -6 -1 -4 -10 -8 -10 -21 0
-15 12 -16 11 -3 -4z"/>
<path d="M9620 9430 c-6 -11 -9 -20 -8 -20 2 0 11 9 21 20 9 11 13 20 7 20 -5
0 -14 -9 -20 -20z"/>
<path d="M9355 9424 c-17 -13 -18 -16 -5 -24 8 -5 20 -10 25 -10 6 0 3 5 -5
10 -13 9 -13 11 0 19 8 6 12 12 10 15 -3 2 -14 -2 -25 -10z"/>
<path d="M9516 9425 c25 -19 40 -19 20 0 -8 8 -20 15 -27 15 -7 0 -4 -6 7 -15z"/>
<path d="M9856 9431 c-3 -5 1 -11 9 -14 9 -4 12 -1 8 9 -6 16 -10 17 -17 5z"/>
<path d="M10007 9429 c7 -7 15 -10 18 -7 3 3 -2 9 -12 12 -14 6 -15 5 -6 -5z"/>
<path d="M10115 9430 c-3 -6 1 -7 9 -4 18 7 21 14 7 14 -6 0 -13 -4 -16 -10z"/>
<path d="M9240 9420 c0 -5 7 -7 15 -4 8 4 15 8 15 10 0 2 -7 4 -15 4 -8 0 -15
-4 -15 -10z"/>
<path d="M9416 9421 c-4 -5 1 -8 9 -7 21 3 31 16 12 16 -9 0 -18 -4 -21 -9z"/>
<path d="M9780 9421 c0 -6 4 -13 10 -16 6 -3 7 1 4 9 -7 18 -14 21 -14 7z"/>
<path d="M10141 9412 c-1 -8 -6 -10 -13 -6 -10 5 -10 4 -1 -6 15 -16 28 -8 20
12 -4 11 -6 11 -6 0z"/>
<path d="M10205 9410 c3 -5 14 -10 23 -10 15 0 15 2 2 10 -20 13 -33 13 -25 0z"/>
<path d="M9890 9406 c0 -2 7 -7 16 -10 8 -3 12 -2 9 4 -6 10 -25 14 -25 6z"/>
<path d="M10026 9395 c-3 -8 -1 -15 4 -15 6 0 10 7 10 15 0 8 -2 15 -4 15 -2
0 -6 -7 -10 -15z"/>
<path d="M9204 9375 c-7 -29 3 -56 24 -63 7 -2 12 1 12 7 0 6 -6 11 -13 11 -8
0 -14 7 -14 15 0 8 4 15 8 15 8 0 6 26 -4 36 -3 3 -9 -6 -13 -21z"/>
<path d="M9966 9388 c3 -5 10 -6 15 -3 13 9 11 12 -6 12 -8 0 -12 -4 -9 -9z"/>
<path d="M9728 9373 c7 -3 16 -2 19 1 4 3 -2 6 -13 5 -11 0 -14 -3 -6 -6z"/>
<path d="M9650 9360 c0 -5 7 -7 15 -4 8 4 15 8 15 10 0 2 -7 4 -15 4 -8 0 -15
-4 -15 -10z"/>
<path d="M9696 9357 c3 -10 9 -15 12 -12 3 3 0 11 -7 18 -10 9 -11 8 -5 -6z"/>
<path d="M10000 9355 c0 -8 -3 -15 -7 -16 -5 0 -18 -2 -30 -3 -34 -4 -39 -14
-9 -22 14 -3 26 -10 26 -14 0 -5 8 -7 18 -6 9 2 20 -1 23 -7 4 -5 15 -7 24 -3
14 5 15 9 5 21 -10 12 -10 18 0 30 7 9 10 18 6 22 -3 3 -6 1 -6 -6 0 -10 -7
-9 -25 3 -22 14 -25 15 -25 1z m40 -18 c0 -2 -8 -10 -19 -19 -12 -10 -23 -13
-32 -7 -11 7 -11 11 -2 17 11 7 53 14 53 9z m0 -37 c0 -5 -2 -10 -4 -10 -3 0
-8 5 -11 10 -3 6 -1 10 4 10 6 0 11 -4 11 -10z"/>
<path d="M9730 9350 c-9 -6 -10 -10 -3 -10 6 0 15 5 18 10 8 12 4 12 -15 0z"/>
<path d="M9670 9338 c0 -9 -6 -19 -12 -21 -8 -3 -7 -6 4 -6 22 -1 29 11 17 29
-7 13 -9 12 -9 -2z"/>
</g>
</svg>
